<svg aria-hidden="true" style="position: absolute; width: 0; height: 0; overflow: hidden;" version="1.1" xmlns="http://www.w3.org/2000/svg" xmlns:xlink="http://www.w3.org/1999/xlink">
<defs>
<symbol id="icon-cc-mastercard" viewBox="0 0 36 28">
<path d="M17.484 5.328c-1.297-0.859-2.828-1.328-4.391-1.328-4.391 0-7.953 3.563-7.953 7.938 0 4.391 3.563 7.953 7.953 7.953 1.563 0 3.094-0.469 4.391-1.328-4.188-3.406-4.156-9.828 0-13.234zM18 5.703c-4.031 3.172-4.047 9.328 0 12.484 4.047-3.156 4.031-9.312 0-12.484zM18.516 5.328c4.141 3.406 4.203 9.844 0 13.234 1.297 0.859 2.844 1.328 4.391 1.328 4.391 0 7.953-3.563 7.953-7.953 0-4.375-3.563-7.938-7.953-7.938-1.563 0-3.094 0.469-4.391 1.328zM30.094 16.609h0.109v-0.047h-0.266v0.047h0.109v0.266h0.047v-0.266zM30.547 16.875h0.063v-0.313h-0.078l-0.094 0.203-0.094-0.203h-0.078v0.313h0.047v-0.234l0.094 0.203h0.063l0.078-0.203v0.234zM30.422 23.75v0.031h-0.078v-0.047h0.078v0.016zM30.422 23.891h0.047l-0.063-0.078c0.031 0 0.031-0.016 0.047-0.016 0.016-0.016 0.016-0.031 0.016-0.047s0-0.031-0.016-0.047c-0.016 0-0.031-0.016-0.063-0.016h-0.094v0.203h0.047v-0.078h0.016zM10.703 22.828c0-0.375 0.234-0.672 0.641-0.672 0.375 0 0.625 0.297 0.625 0.672 0 0.391-0.25 0.672-0.625 0.672-0.406 0-0.641-0.297-0.641-0.672zM18.094 22.141c0.297 0 0.5 0.172 0.547 0.5h-1.094c0.047-0.297 0.234-0.5 0.547-0.5zM23.656 22.828c0-0.375 0.234-0.672 0.625-0.672s0.641 0.297 0.641 0.672c0 0.391-0.25 0.672-0.641 0.672s-0.625-0.297-0.625-0.672zM27.906 22.828c0-0.375 0.25-0.672 0.641-0.672 0.375 0 0.641 0.297 0.641 0.672 0 0.391-0.266 0.672-0.641 0.672-0.391 0-0.641-0.297-0.641-0.672zM30.375 23.953c-0.016 0-0.031 0-0.063-0.016-0.016 0-0.031-0.016-0.047-0.031s-0.031-0.031-0.031-0.047-0.016-0.047-0.016-0.063 0-0.047 0.016-0.063c0-0.031 0.016-0.047 0.031-0.063s0.031-0.016 0.047-0.031 0.047-0.016 0.063-0.016 0.047 0 0.063 0.016 0.047 0.016 0.063 0.031 0.016 0.031 0.031 0.063c0 0.016 0.016 0.031 0.016 0.063 0 0.016-0.016 0.031-0.016 0.063-0.016 0.016-0.016 0.031-0.031 0.047s-0.031 0.031-0.063 0.031c-0.016 0.016-0.031 0.016-0.063 0.016zM9.359 23.891h0.469v-1.328c0-0.5-0.328-0.828-0.844-0.844-0.266 0-0.547 0.078-0.734 0.375-0.141-0.234-0.375-0.375-0.703-0.375-0.219 0-0.438 0.078-0.609 0.313v-0.25h-0.469v2.109h0.469v-1.172c0-0.375 0.203-0.562 0.516-0.562s0.469 0.203 0.469 0.562v1.172h0.453v-1.172c0-0.375 0.219-0.562 0.516-0.562 0.313 0 0.469 0.203 0.469 0.562v1.172zM11.953 23.891h0.453v-2.109h-0.453v0.25c-0.156-0.187-0.375-0.313-0.672-0.313-0.594 0-1.047 0.469-1.047 1.109s0.453 1.109 1.047 1.109c0.297 0 0.516-0.109 0.672-0.313v0.266zM14.734 23.25c0-0.375-0.281-0.562-0.734-0.625l-0.219-0.031c-0.203-0.031-0.359-0.078-0.359-0.219s0.141-0.234 0.391-0.234c0.281 0 0.531 0.094 0.672 0.172l0.187-0.375c-0.219-0.141-0.516-0.219-0.859-0.219-0.531 0-0.875 0.266-0.875 0.688 0 0.344 0.25 0.547 0.734 0.609l0.203 0.031c0.266 0.047 0.375 0.109 0.375 0.219 0 0.172-0.172 0.266-0.484 0.266s-0.547-0.109-0.703-0.219l-0.203 0.359c0.25 0.172 0.562 0.266 0.906 0.266 0.609 0 0.969-0.281 0.969-0.688zM16.766 23.781l-0.125-0.391c-0.141 0.078-0.281 0.109-0.406 0.109-0.234 0-0.297-0.141-0.297-0.344v-0.953h0.75v-0.422h-0.75v-0.641h-0.469v0.641h-0.438v0.422h0.438v0.953c0 0.484 0.187 0.781 0.734 0.781 0.187 0 0.422-0.063 0.562-0.156zM18.109 21.719c-0.609 0-1.047 0.453-1.047 1.109 0 0.672 0.453 1.109 1.078 1.109 0.313 0 0.609-0.078 0.859-0.297l-0.219-0.344c-0.172 0.141-0.406 0.234-0.609 0.234-0.297 0-0.562-0.141-0.641-0.516h1.578v-0.187c0-0.656-0.406-1.109-1-1.109zM20.594 21.719c-0.266 0-0.438 0.125-0.547 0.313v-0.25h-0.469v2.109h0.469v-1.188c0-0.344 0.141-0.547 0.453-0.547 0.094 0 0.187 0.016 0.281 0.063l0.141-0.438c-0.109-0.047-0.234-0.063-0.328-0.063zM21.063 22.828c0 0.641 0.438 1.109 1.125 1.109 0.313 0 0.531-0.063 0.75-0.25l-0.219-0.375c-0.172 0.125-0.344 0.203-0.547 0.187-0.375 0-0.641-0.266-0.641-0.672s0.266-0.672 0.641-0.672c0.203 0 0.375 0.063 0.547 0.187l0.219-0.375c-0.219-0.172-0.438-0.25-0.75-0.25-0.688 0-1.125 0.469-1.125 1.109zM24.891 23.891h0.469v-2.109h-0.469v0.25c-0.141-0.187-0.359-0.313-0.656-0.313-0.594 0-1.062 0.469-1.062 1.109s0.469 1.109 1.062 1.109c0.297 0 0.516-0.109 0.656-0.313v0.266zM26.969 21.719c-0.266 0-0.438 0.125-0.547 0.313v-0.25h-0.453v2.109h0.453v-1.188c0-0.344 0.156-0.547 0.453-0.547 0.094 0 0.187 0.016 0.281 0.063l0.141-0.438c-0.094-0.047-0.234-0.063-0.328-0.063zM29.156 23.891h0.453v-2.969h-0.453v1.109c-0.141-0.187-0.359-0.313-0.672-0.313-0.578 0-1.047 0.469-1.047 1.109s0.469 1.109 1.047 1.109c0.313 0 0.531-0.109 0.672-0.313v0.266zM30.375 23.578c-0.016 0-0.047 0.016-0.078 0.016-0.031 0.016-0.047 0.031-0.063 0.047-0.031 0.016-0.047 0.047-0.047 0.063-0.016 0.031-0.016 0.063-0.016 0.094 0 0.016 0 0.047 0.016 0.078 0 0.016 0.016 0.047 0.047 0.063 0.016 0.016 0.031 0.031 0.063 0.047s0.063 0.016 0.078 0.016c0.031 0 0.063 0 0.094-0.016 0.016-0.016 0.047-0.031 0.063-0.047s0.031-0.047 0.047-0.063c0.016-0.031 0.016-0.063 0.016-0.078 0-0.031 0-0.063-0.016-0.094-0.016-0.016-0.031-0.047-0.047-0.063s-0.047-0.031-0.063-0.047c-0.031 0-0.063-0.016-0.094-0.016zM36 4v20c0 1.094-0.906 2-2 2h-32c-1.094 0-2-0.906-2-2v-20c0-1.094 0.906-2 2-2h32c1.094 0 2 0.906 2 2z"></path>
</symbol>
<symbol id="icon-rss-alt" viewBox="0 0 32 32">
<path d="M32 32h-4.57c0-15.125-12.305-27.428-27.43-27.428v-4.572c17.641 0 32 14.355 32 32v0zM22.855 32h-4.57c0-10.082-8.207-18.285-18.285-18.285v-4.572c12.602 0 22.855 10.255 22.855 22.857v0zM13.715 32h-4.574c0-5.043-4.098-9.141-9.141-9.141v-4.574c7.562 0 13.715 6.153 13.715 13.715v0zM4.57 32c0-2.523-2.043-4.57-4.57-4.57v4.57h4.57z"></path>
</symbol>
<symbol id="icon-info" viewBox="0 0 16 32">
<path d="M2 16c1.105 0 2 0.895 2 2v8c0 1.105-0.895 2-2 2h-2v4h16v-4h-1.992c-1.102 0-2.008-0.895-2.008-2l-0.004-14h-11.996v4h2zM4 4c0-2.209 1.791-4 4-4s4 1.791 4 4c0 2.209-1.791 4-4 4s-4-1.791-4-4z"></path>
</symbol>
<symbol id="icon-camera" viewBox="0 0 32 32">
<path d="M9.5 19c0 3.59 2.91 6.5 6.5 6.5s6.5-2.91 6.5-6.5-2.91-6.5-6.5-6.5-6.5 2.91-6.5 6.5zM30 8h-7c-0.5-2-1-4-3-4h-8c-2 0-2.5 2-3 4h-7c-1.1 0-2 0.9-2 2v18c0 1.1 0.9 2 2 2h28c1.1 0 2-0.9 2-2v-18c0-1.1-0.9-2-2-2zM16 27.875c-4.902 0-8.875-3.973-8.875-8.875s3.973-8.875 8.875-8.875c4.902 0 8.875 3.973 8.875 8.875s-3.973 8.875-8.875 8.875zM30 14h-4v-2h4v2z"></path>
</symbol>
<symbol id="icon-connection" viewBox="0 0 40 32">
<path d="M20 18c3.308 0 6.308 1.346 8.481 3.519l-2.827 2.827c-1.449-1.449-3.449-2.346-5.654-2.346s-4.206 0.897-5.654 2.346l-2.827-2.827c2.173-2.173 5.173-3.519 8.481-3.519zM5.858 15.858c3.777-3.777 8.8-5.858 14.142-5.858s10.365 2.080 14.142 5.858l-2.828 2.828c-3.022-3.022-7.040-4.686-11.314-4.686s-8.292 1.664-11.314 4.686l-2.828-2.828zM30.899 4.201c3.334 1.41 6.329 3.429 8.899 6v0l-2.828 2.828c-4.533-4.533-10.56-7.029-16.971-7.029s-12.438 2.496-16.971 7.029l-2.828-2.828c2.571-2.571 5.565-4.589 8.899-6 3.453-1.461 7.12-2.201 10.899-2.201s7.446 0.741 10.899 2.201zM18 28c0-1.105 0.895-2 2-2s2 0.895 2 2c0 1.105-0.895 2-2 2s-2-0.895-2-2z"></path>
</symbol>
<symbol id="icon-books" viewBox="0 0 36 32">
<path d="M7 4h-6c-0.55 0-1 0.45-1 1v22c0 0.55 0.45 1 1 1h6c0.55 0 1-0.45 1-1v-22c0-0.55-0.45-1-1-1zM6 10h-4v-2h4v2z"></path>
<path d="M17 4h-6c-0.55 0-1 0.45-1 1v22c0 0.55 0.45 1 1 1h6c0.55 0 1-0.45 1-1v-22c0-0.55-0.45-1-1-1zM16 10h-4v-2h4v2z"></path>
<path d="M23.909 5.546l-5.358 2.7c-0.491 0.247-0.691 0.852-0.443 1.343l8.999 17.861c0.247 0.491 0.852 0.691 1.343 0.443l5.358-2.7c0.491-0.247 0.691-0.852 0.443-1.343l-8.999-17.861c-0.247-0.491-0.852-0.691-1.343-0.443z"></path>
</symbol>
<symbol id="icon-cart" viewBox="0 0 32 32">
<path d="M12 29c0 1.657-1.343 3-3 3s-3-1.343-3-3c0-1.657 1.343-3 3-3s3 1.343 3 3z"></path>
<path d="M32 29c0 1.657-1.343 3-3 3s-3-1.343-3-3c0-1.657 1.343-3 3-3s3 1.343 3 3z"></path>
<path d="M32 16v-12h-24c0-1.105-0.895-2-2-2h-6v2h4l1.502 12.877c-0.915 0.733-1.502 1.859-1.502 3.123 0 2.209 1.791 4 4 4h24v-2h-24c-1.105 0-2-0.895-2-2 0-0.007 0-0.014 0-0.020l26-3.98z"></path>
</symbol>
<symbol id="icon-credit-card" viewBox="0 0 32 32">
<path d="M29 4h-26c-1.65 0-3 1.35-3 3v18c0 1.65 1.35 3 3 3h26c1.65 0 3-1.35 3-3v-18c0-1.65-1.35-3-3-3zM3 6h26c0.542 0 1 0.458 1 1v3h-28v-3c0-0.542 0.458-1 1-1zM29 26h-26c-0.542 0-1-0.458-1-1v-9h28v9c0 0.542-0.458 1-1 1zM4 20h2v4h-2zM8 20h2v4h-2zM12 20h2v4h-2z"></path>
</symbol>
<symbol id="icon-location" viewBox="0 0 32 32">
<path d="M16 0c-5.523 0-10 4.477-10 10 0 10 10 22 10 22s10-12 10-22c0-5.523-4.477-10-10-10zM16 16c-3.314 0-6-2.686-6-6s2.686-6 6-6 6 2.686 6 6-2.686 6-6 6z"></path>
</symbol>
<symbol id="icon-display" viewBox="0 0 32 32">
<path d="M0 2v20h32v-20h-32zM30 20h-28v-16h28v16zM21 24h-10l-1 4-2 2h16l-2-2z"></path>
</symbol>
<symbol id="icon-laptop" viewBox="0 0 32 32">
<path d="M28 22v-16c0-1.1-0.9-2-2-2h-20c-1.1 0-2 0.9-2 2v16h-4v6h32v-6h-4zM20 26h-8v-2h8v2zM26 22h-20v-15.996c0.001-0.001 0.002-0.003 0.004-0.004h19.993c0.001 0.001 0.003 0.002 0.004 0.004v15.996z"></path>
</symbol>
<symbol id="icon-mobile" viewBox="0 0 32 32">
<path d="M23 0h-14c-1.65 0-3 1.35-3 3v26c0 1.65 1.35 3 3 3h14c1.65 0 3-1.35 3-3v-26c0-1.65-1.35-3-3-3zM12 1.5h8v1h-8v-1zM16 30c-1.105 0-2-0.895-2-2s0.895-2 2-2 2 0.895 2 2-0.895 2-2 2zM24 24h-16v-20h16v20z"></path>
</symbol>
<symbol id="icon-mobile2" viewBox="0 0 32 32">
<path d="M24 0h-18c-1.1 0-2 0.9-2 2v28c0 1.1 0.9 2 2 2h18c1.1 0 2-0.9 2-2v-28c0-1.1-0.9-2-2-2zM15 30.556c-0.859 0-1.556-0.697-1.556-1.556s0.697-1.556 1.556-1.556 1.556 0.697 1.556 1.556-0.697 1.556-1.556 1.556zM24 26h-18v-22h18v22z"></path>
</symbol>
<symbol id="icon-trophy" viewBox="0 0 32 32">
<path d="M26 6v-4h-20v4h-6v4c0 3.314 2.686 6 6 6 0.627 0 1.232-0.096 1.801-0.275 1.443 2.063 3.644 3.556 6.199 4.075v6.2h-2c-2.209 0-4 1.791-4 4h16c0-2.209-1.791-4-4-4h-2v-6.2c2.555-0.519 4.756-2.012 6.199-4.075 0.568 0.179 1.173 0.275 1.801 0.275 3.314 0 6-2.686 6-6v-4h-6zM6 13.625c-1.999 0-3.625-1.626-3.625-3.625v-2h3.625v2c0 1.256 0.232 2.457 0.655 3.565-0.213 0.039-0.431 0.060-0.655 0.060zM29.625 10c0 1.999-1.626 3.625-3.625 3.625-0.224 0-0.442-0.021-0.655-0.060 0.423-1.107 0.655-2.309 0.655-3.565v-2h3.625v2z"></path>
</symbol>
<symbol id="icon-glass" viewBox="0 0 32 32">
<path d="M24.306 0.527c-0.174-0.324-0.513-0.527-0.881-0.527h-14.85c-0.368 0-0.707 0.202-0.881 0.527-1.108 2.063-1.694 4.474-1.694 6.973 0 3.294 1.012 6.401 2.849 8.748 1.42 1.814 3.203 3.017 5.151 3.505v10.247h-3c-0.552 0-1 0.448-1 1s0.448 1 1 1h10c0.552 0 1-0.448 1-1s-0.448-1-1-1h-3v-10.247c1.949-0.488 3.732-1.691 5.151-3.505 1.837-2.347 2.849-5.454 2.849-8.748 0-2.499-0.586-4.91-1.694-6.973zM9.191 2h13.619c0.78 1.653 1.191 3.542 1.191 5.5 0 0.168-0.003 0.334-0.009 0.5h-15.981c-0.006-0.166-0.009-0.332-0.009-0.5-0-1.958 0.41-3.847 1.191-5.5z"></path>
</symbol>
<symbol id="icon-glass2" viewBox="0 0 32 32">
<path d="M27.786 5.618c0.236-0.301 0.28-0.711 0.113-1.055s-0.517-0.563-0.899-0.563h-22c-0.383 0-0.732 0.219-0.899 0.563s-0.123 0.754 0.113 1.055l9.786 12.455v11.927h-3c-0.552 0-1 0.448-1 1s0.448 1 1 1h10c0.552 0 1-0.448 1-1s-0.448-1-1-1h-3v-11.927l9.786-12.455zM24.943 6l-3.143 4h-11.599l-3.143-4h17.885z"></path>
</symbol>
<symbol id="icon-mug" viewBox="0 0 32 32">
<path d="M30 10h-6v-3c0-2.761-5.373-5-12-5s-12 2.239-12 5v20c0 2.761 5.373 5 12 5s12-2.239 12-5v-3h6c1.105 0 2-0.895 2-2v-10c0-1.105-0.895-2-2-2zM5.502 8.075c-1.156-0.381-1.857-0.789-2.232-1.075 0.375-0.286 1.075-0.694 2.232-1.075 1.811-0.597 4.118-0.925 6.498-0.925s4.688 0.329 6.498 0.925c1.156 0.381 1.857 0.789 2.232 1.075-0.375 0.286-1.076 0.694-2.232 1.075-1.811 0.597-4.118 0.925-6.498 0.925s-4.688-0.329-6.498-0.925zM28 20h-4v-6h4v6z"></path>
</symbol>
<symbol id="icon-spoon-knife" viewBox="0 0 32 32">
<path d="M7 0c-3.314 0-6 3.134-6 7 0 3.31 1.969 6.083 4.616 6.812l-0.993 16.191c-0.067 1.098 0.778 1.996 1.878 1.996h1c1.1 0 1.945-0.898 1.878-1.996l-0.993-16.191c2.646-0.729 4.616-3.502 4.616-6.812 0-3.866-2.686-7-6-7zM27.167 0l-1.667 10h-1.25l-0.833-10h-0.833l-0.833 10h-1.25l-1.667-10h-0.833v13c0 0.552 0.448 1 1 1h2.604l-0.982 16.004c-0.067 1.098 0.778 1.996 1.878 1.996h1c1.1 0 1.945-0.898 1.878-1.996l-0.982-16.004h2.604c0.552 0 1-0.448 1-1v-13h-0.833z"></path>
</symbol>
<symbol id="icon-earth" viewBox="0 0 32 32">
<path d="M16 0c-8.837 0-16 7.163-16 16s7.163 16 16 16 16-7.163 16-16-7.163-16-16-16zM16 30c-1.967 0-3.84-0.407-5.538-1.139l7.286-8.197c0.163-0.183 0.253-0.419 0.253-0.664v-3c0-0.552-0.448-1-1-1-3.531 0-7.256-3.671-7.293-3.707-0.188-0.188-0.442-0.293-0.707-0.293h-4c-0.552 0-1 0.448-1 1v6c0 0.379 0.214 0.725 0.553 0.894l3.447 1.724v5.871c-3.627-2.53-6-6.732-6-11.489 0-2.147 0.484-4.181 1.348-6h3.652c0.265 0 0.52-0.105 0.707-0.293l4-4c0.188-0.188 0.293-0.442 0.293-0.707v-2.419c1.268-0.377 2.61-0.581 4-0.581 2.2 0 4.281 0.508 6.134 1.412-0.13 0.109-0.256 0.224-0.376 0.345-1.133 1.133-1.757 2.64-1.757 4.243s0.624 3.109 1.757 4.243c1.139 1.139 2.663 1.758 4.239 1.758 0.099 0 0.198-0.002 0.297-0.007 0.432 1.619 1.211 5.833-0.263 11.635-0.014 0.055-0.022 0.109-0.026 0.163-2.541 2.596-6.084 4.208-10.004 4.208z"></path>
</symbol>
<symbol id="icon-star-full" viewBox="0 0 32 32">
<path d="M32 12.408l-11.056-1.607-4.944-10.018-4.944 10.018-11.056 1.607 8 7.798-1.889 11.011 9.889-5.199 9.889 5.199-1.889-11.011 8-7.798z"></path>
</symbol>
<symbol id="icon-heart" viewBox="0 0 32 32">
<path d="M23.6 2c-3.363 0-6.258 2.736-7.599 5.594-1.342-2.858-4.237-5.594-7.601-5.594-4.637 0-8.4 3.764-8.4 8.401 0 9.433 9.516 11.906 16.001 21.232 6.13-9.268 15.999-12.1 15.999-21.232 0-4.637-3.763-8.401-8.4-8.401z"></path>
</symbol>
<symbol id="icon-enter" viewBox="0 0 32 32">
<path d="M12 16h-10v-4h10v-4l6 6-6 6zM32 0v26l-12 6v-6h-12v-8h2v6h10v-18l8-4h-18v8h-2v-10z"></path>
</symbol>
<symbol id="icon-facebook" viewBox="0 0 32 32">
<path d="M19 6h5v-6h-5c-3.86 0-7 3.14-7 7v3h-4v6h4v16h6v-16h5l1-6h-6v-3c0-0.542 0.458-1 1-1z"></path>
</symbol>
<symbol id="icon-facebook2" viewBox="0 0 32 32">
<path d="M29 0h-26c-1.65 0-3 1.35-3 3v26c0 1.65 1.35 3 3 3h13v-14h-4v-4h4v-2c0-3.306 2.694-6 6-6h4v4h-4c-1.1 0-2 0.9-2 2v2h6l-1 4h-5v14h9c1.65 0 3-1.35 3-3v-26c0-1.65-1.35-3-3-3z"></path>
</symbol>
<symbol id="icon-spotify" viewBox="0 0 32 32">
<path d="M16 0c-8.8 0-16 7.2-16 16s7.2 16 16 16 16-7.2 16-16-7.119-16-16-16zM23.363 23.119c-0.319 0.481-0.881 0.637-1.363 0.319-3.762-2.319-8.481-2.8-14.081-1.519-0.563 0.163-1.037-0.238-1.2-0.719-0.162-0.563 0.237-1.038 0.719-1.2 6.081-1.363 11.363-0.8 15.519 1.762 0.563 0.238 0.644 0.875 0.406 1.356zM25.281 18.719c-0.4 0.563-1.119 0.8-1.681 0.4-4.319-2.637-10.881-3.438-15.919-1.837-0.638 0.163-1.362-0.163-1.519-0.8-0.162-0.637 0.162-1.363 0.8-1.519 5.838-1.762 13.037-0.881 18 2.163 0.475 0.238 0.719 1.038 0.319 1.594zM25.438 14.238c-5.119-3.037-13.681-3.363-18.563-1.838-0.8 0.238-1.6-0.238-1.838-0.963-0.237-0.8 0.237-1.6 0.963-1.838 5.681-1.681 15.038-1.363 20.962 2.162 0.719 0.4 0.962 1.363 0.563 2.081-0.406 0.556-1.363 0.794-2.087 0.394z"></path>
</symbol>
<symbol id="icon-twitter" viewBox="0 0 32 32">
<path d="M32 7.075c-1.175 0.525-2.444 0.875-3.769 1.031 1.356-0.813 2.394-2.1 2.887-3.631-1.269 0.75-2.675 1.3-4.169 1.594-1.2-1.275-2.906-2.069-4.794-2.069-3.625 0-6.563 2.938-6.563 6.563 0 0.512 0.056 1.012 0.169 1.494-5.456-0.275-10.294-2.888-13.531-6.862-0.563 0.969-0.887 2.1-0.887 3.3 0 2.275 1.156 4.287 2.919 5.463-1.075-0.031-2.087-0.331-2.975-0.819 0 0.025 0 0.056 0 0.081 0 3.181 2.263 5.838 5.269 6.437-0.55 0.15-1.131 0.231-1.731 0.231-0.425 0-0.831-0.044-1.237-0.119 0.838 2.606 3.263 4.506 6.131 4.563-2.25 1.762-5.075 2.813-8.156 2.813-0.531 0-1.050-0.031-1.569-0.094 2.913 1.869 6.362 2.95 10.069 2.95 12.075 0 18.681-10.006 18.681-18.681 0-0.287-0.006-0.569-0.019-0.85 1.281-0.919 2.394-2.075 3.275-3.394z"></path>
</symbol>
<symbol id="icon-rss" viewBox="0 0 32 32">
<path d="M4.259 23.467c-2.35 0-4.259 1.917-4.259 4.252 0 2.349 1.909 4.244 4.259 4.244 2.358 0 4.265-1.895 4.265-4.244-0-2.336-1.907-4.252-4.265-4.252zM0.005 10.873v6.133c3.993 0 7.749 1.562 10.577 4.391 2.825 2.822 4.384 6.595 4.384 10.603h6.16c-0-11.651-9.478-21.127-21.121-21.127zM0.012 0v6.136c14.243 0 25.836 11.604 25.836 25.864h6.152c0-17.64-14.352-32-31.988-32z"></path>
</symbol>
<symbol id="icon-youtube2" viewBox="0 0 80 32">
<path d="M10.75 5.294c0.007-0.027 0.011-0.046 0.012-0.056l0.033-0.236-1.48-0.008c-1.337-0.008-1.746 0-1.783 0.034-0.018 0.016-0.479 1.77-1.302 4.946-0.392 1.515-0.723 2.725-0.734 2.689s-0.481-1.766-1.044-3.843c-0.563-2.078-1.034-3.789-1.048-3.803-0.019-0.019-1.812-0.028-3.263-0.016-0.21 0.002-0.327-0.41 1.876 6.598 0.305 0.97 0.762 2.344 1.015 3.052 0.292 0.817 0.5 1.448 0.642 1.974 0.251 1.002 0.26 1.63 0.205 2.363-0.063 0.847-0.073 6.826-0.011 6.926 0.047 0.077 2.851 0.112 3.116 0.040 0.042-0.012 0.071-0.053 0.090-0.279 0.066-0.194 0.071-0.968 0.071-4.18v-4.103l0.179-0.566c0.117-0.37 0.413-1.344 0.656-2.163s0.538-1.801 0.654-2.18c1.057-3.447 2.067-6.838 2.094-7.032l0.022-0.158z"></path>
<path d="M26.441 10.27l-0.001 0.214-0.033 0-0.019 5.906-0.018 5.726-0.458 0.467c-0.513 0.522-0.925 0.722-1.297 0.629-0.405-0.102-0.395 0.056-0.429-6.712l-0.031-6.23h-2.947v0.214h-0.034v6.759c0 7.242-0 7.237 0.367 7.965 0.293 0.579 0.719 0.861 1.45 0.958h0c0.962 0.128 2-0.308 2.962-1.244l0.418-0.407v0.701c0 0.606 0.017 0.706 0.127 0.737 0.18 0.050 2.412 0.053 2.653 0.004l0.2-0.041v-0.207l0.034-0.007v-15.472l-2.944 0.039z"></path>
<path d="M18.965 13.323c-0.279-1.198-0.802-2.004-1.664-2.561-1.353-0.875-2.897-0.967-4.331-0.259-1.045 0.516-1.717 1.372-2.065 2.628-0.041 0.15-0.072 0.275-0.095 0.463-0.088 0.443-0.099 1.105-0.122 4.186-0.035 4.748 0.019 5.313 0.614 6.391 0.583 1.058 1.794 1.833 3.112 1.993 0.397 0.048 1.201-0.027 1.663-0.155 1.051-0.291 2.058-1.122 2.504-2.065 0.192-0.407 0.309-0.691 0.379-1.208 0.13-0.707 0.14-1.849 0.14-4.762-0-3.715-0.012-4.121-0.136-4.651zM15.604 23c-0.247 0.188-0.679 0.27-1.031 0.195-0.271-0.058-0.636-0.482-0.748-0.869-0.14-0.482-0.151-7.187-0.030-8.502 0.199-0.658 0.756-1.002 1.364-0.838 0.474 0.128 0.716 0.424 0.854 1.046 0.103 0.461 0.115 1.035 0.093 4.414-0.014 2.241-0.022 3.336-0.096 3.924-0.074 0.371-0.197 0.47-0.407 0.63z"></path>
<path d="M71.887 16.692h1.424l-0.023-1.29c-0.022-1.183-0.039-1.319-0.198-1.64-0.249-0.507-0.617-0.731-1.201-0.731-0.701 0-1.146 0.339-1.356 1.036-0.089 0.296-0.183 2.334-0.116 2.51 0.038 0.098 0.241 0.116 1.469 0.116z"></path>
<path d="M62.369 13.757c-0.19-0.383-0.543-0.571-0.954-0.556-0.319 0.011-0.674 0.146-1.015 0.407l-0.254 0.193v9.269l0.254 0.193c0.576 0.439 1.209 0.532 1.644 0.241 0.172-0.115 0.285-0.274 0.372-0.527 0.114-0.329 0.124-0.75 0.109-4.649-0.015-4.064-0.024-4.303-0.157-4.57z"></path>
<path d="M80.027 9.582c-0.284-3.401-0.509-4.505-1.211-5.923-0.929-1.878-2.272-2.868-4.184-3.086-1.478-0.168-7.041-0.405-12.189-0.52-8.912-0.198-23.564 0.183-25.436 0.662-0.865 0.221-1.513 0.597-2.188 1.269-1.183 1.177-1.887 2.865-2.17 5.2-0.647 5.331-0.66 11.773-0.037 17.297 0.268 2.376 0.82 3.92 1.857 5.192 0.647 0.794 1.761 1.469 2.758 1.67 0.7 0.141 4.201 0.337 9.3 0.521 0.76 0.027 2.771 0.074 4.47 0.105 3.541 0.063 10.051 0.026 13.772-0.079 2.504-0.070 7.069-0.255 7.922-0.321 0.24-0.019 0.796-0.054 1.236-0.079 1.477-0.083 2.417-0.393 3.3-1.086 1.142-0.897 2.027-2.556 2.4-4.501 0.354-1.84 0.59-5.118 0.638-8.839 0.040-3.109-0.013-4.787-0.238-7.482zM44.54 8.35l-1.656 0.020-0.073 17.661-1.435 0.018c-1.11 0.015-1.447-0.001-1.474-0.073-0.019-0.051-0.042-4.032-0.052-8.849l-0.018-8.758-3.234-0.041v-2.76l9.557 0.039 0.041 2.721-1.656 0.020zM54.694 18.472v7.595h-2.616v-0.799c0-0.601-0.023-0.799-0.093-0.799-0.051 0-0.288 0.198-0.527 0.441-0.517 0.526-1.13 0.949-1.653 1.145-1.083 0.405-2.112 0.169-2.551-0.586-0.401-0.691-0.409-0.845-0.409-8.010v-6.58h2.614l0.020 6.196c0.019 6.088 0.022 6.2 0.168 6.448 0.193 0.329 0.488 0.417 0.956 0.288 0.276-0.076 0.464-0.21 0.911-0.654l0.563-0.561v-11.717h2.616v7.595zM64.899 24.982c-0.23 0.513-0.744 1.016-1.165 1.14-1.099 0.324-1.98 0.060-2.998-0.897-0.316-0.297-0.61-0.538-0.654-0.538-0.053 0-0.082 0.233-0.082 0.69v0.69h-2.616v-20.495h2.616v3.343c0 1.839 0.025 3.343 0.054 3.343s0.306-0.244 0.613-0.541c0.707-0.683 1.298-0.981 2.049-1.038 1.338-0.101 2.135 0.587 2.501 2.16 0.114 0.491 0.125 1.051 0.125 5.596-0 5.537-0.001 5.56-0.443 6.546zM75.968 21.943c-0.023 0.57-0.092 1.223-0.154 1.454-0.364 1.349-1.332 2.304-2.732 2.696-1.885 0.527-3.96-0.337-4.788-1.994-0.465-0.93-0.481-1.116-0.481-5.662 0-3.707 0.013-4.162 0.132-4.667 0.336-1.431 1.168-2.357 2.578-2.871 0.408-0.149 0.835-0.225 1.261-0.234 1.521-0.031 3.031 0.787 3.663 2.119 0.427 0.899 0.48 1.283 0.522 3.816l0.039 2.271-5.578 0.039-0.020 1.526c-0.029 2.153 0.116 2.815 0.697 3.207 0.489 0.329 1.24 0.305 1.649-0.055 0.383-0.337 0.491-0.698 0.529-1.753l0.034-0.927h2.694l-0.043 1.036z"></path>
</symbol>
<symbol id="icon-appleinc" viewBox="0 0 32 32">
<path d="M24.734 17.003c-0.040-4.053 3.305-5.996 3.454-6.093-1.88-2.751-4.808-3.127-5.851-3.171-2.492-0.252-4.862 1.467-6.127 1.467-1.261 0-3.213-1.43-5.28-1.392-2.716 0.040-5.221 1.579-6.619 4.012-2.822 4.897-0.723 12.151 2.028 16.123 1.344 1.944 2.947 4.127 5.051 4.049 2.026-0.081 2.793-1.311 5.242-1.311s3.138 1.311 5.283 1.271c2.18-0.041 3.562-1.981 4.897-3.931 1.543-2.255 2.179-4.439 2.216-4.551-0.048-0.022-4.252-1.632-4.294-6.473zM20.705 5.11c1.117-1.355 1.871-3.235 1.665-5.11-1.609 0.066-3.559 1.072-4.713 2.423-1.036 1.199-1.942 3.113-1.699 4.951 1.796 0.14 3.629-0.913 4.747-2.264z"></path>
</symbol>
<symbol id="icon-americanexpress" viewBox="0 0 32 32">
<path fill="#2e77bc" style="fill: var(--color1, #2e77bc)" d="M21.353 19.171c0-0.427-0.18-0.661-0.459-0.829-0.28-0.16-0.619-0.18-1.080-0.18h-2.057v3.76h0.9v-1.369h0.96c0.32 0 0.52 0.032 0.637 0.167 0.16 0.173 0.139 0.507 0.139 0.733v0.467h0.88v-0.74c-0.003-0.333-0.023-0.501-0.144-0.688-0.080-0.107-0.24-0.24-0.44-0.312l0.027-0.011c0.24-0.096 0.64-0.396 0.637-0.997zM20.193 19.713l-0.037-0.003c-0.12 0.071-0.26 0.077-0.44 0.077h-1.080v-0.84h1.099c0.16 0 0.32 0 0.44 0.067 0.131 0.064 0.208 0.196 0.2 0.34 0 0.16-0.060 0.287-0.181 0.359zM27.063 21.116h-1.729v0.8h1.739c0.901 0 1.4-0.371 1.4-1.179 0-0.373-0.088-0.597-0.249-0.776-0.204-0.177-0.523-0.257-0.973-0.276l-0.501-0.020c-0.139 0-0.24 0-0.34-0.040-0.12-0.040-0.2-0.14-0.2-0.28 0-0.12 0.023-0.221 0.12-0.28 0.111-0.061 0.236-0.088 0.363-0.080h1.64v-0.803h-1.8c-0.939 0-1.277 0.583-1.277 1.12 0 1.2 1.035 1.14 1.876 1.16 0.139 0 0.24 0.020 0.3 0.080 0.061 0.040 0.109 0.141 0.109 0.24 0 0.103-0.047 0.2-0.107 0.24-0.080 0.071-0.2 0.093-0.369 0.093zM0 0v13.461l1.080-2.501h2.333l0.3 0.619v-0.619h2.724l0.6 1.36 0.583-1.351h8.669c0.393 0 0.747 0.076 1.008 0.315v-0.307h2.383v0.307c0.409-0.227 0.915-0.307 1.493-0.307h3.475l0.32 0.621v-0.621h2.557l0.339 0.62v-0.621h2.477v5.264h-2.515l-0.48-0.8v0.78h-3.137l-0.341-0.84h-0.777l-0.36 0.819h-1.617c-0.64 0-1.12-0.139-1.44-0.32v0.32h-3.853v-1.179c0-0.16-0.040-0.16-0.14-0.18h-0.14v1.381h-7.451v-0.64l-0.28 0.64h-1.556l-0.269-0.64v0.62h-3.004l-0.341-0.832h-0.772l-0.341 0.832h-1.525v15.799h31.715v-9.477c-0.36 0.18-0.817 0.24-1.297 0.24h-2.297v-0.34c-0.28 0.22-0.76 0.34-1.219 0.34h-7.288v-1.2c0-0.16-0.024-0.16-0.16-0.16h-0.1v1.363h-2.4v-1.421c-0.397 0.181-0.857 0.2-1.237 0.181h-0.285v1.22h-2.907l-0.72-0.823-0.76 0.8h-4.721v-5.24h4.813l0.691 0.803 0.739-0.8h3.216c0.373 0 0.987 0.040 1.256 0.3v-0.32h2.903c0.269 0 0.859 0.060 1.204 0.3v-0.32h4.353v0.32c0.217-0.219 0.677-0.32 1.071-0.32h2.52v0.32c0.259-0.2 0.619-0.32 1.12-0.32h1.568v-17.445zM28.208 19.94c0.005 0.007 0.008 0.016 0.013 0.021 0.013 0.013 0.032 0.013 0.043 0.027zM31.771 17.443h0.087v0.74h-0.087zM31.82 20.040v-0.007c-0.040-0.033-0.061-0.064-0.1-0.093-0.2-0.204-0.52-0.287-1.019-0.3l-0.48-0.016c-0.16 0-0.259-0.009-0.36-0.040-0.12-0.040-0.2-0.14-0.2-0.28 0-0.12 0.040-0.213 0.12-0.272 0.101-0.060 0.2-0.067 0.36-0.067h1.631v-0.784h-1.711c-0.92 0-1.28 0.583-1.28 1.12 0 1.2 1.040 1.14 1.88 1.16 0.139 0 0.24 0.020 0.299 0.080 0.061 0.040 0.101 0.141 0.101 0.24 0 0.093-0.045 0.184-0.12 0.24-0.060 0.075-0.181 0.093-0.36 0.093h-1.717v0.807h1.716c0.56 0 0.979-0.157 1.2-0.48h0.040c0.12-0.179 0.18-0.4 0.18-0.697 0-0.32-0.060-0.52-0.18-0.704zM24.796 18.944v-0.777h-2.98v3.777h2.98v-0.78h-2.093v-0.76h2.044v-0.779h-2.043v-0.68zM18.013 11.716h0.913v3.751h-0.912zM17.501 12.724l-0.009 0.008c0-0.419-0.173-0.667-0.453-0.832-0.289-0.167-0.627-0.18-1.080-0.18h-2.052v3.76h0.899v-1.379h0.96c0.32 0 0.52 0.040 0.649 0.16 0.163 0.181 0.143 0.504 0.143 0.731v0.472h0.903v-0.737c0-0.333-0.021-0.5-0.147-0.688-0.12-0.143-0.269-0.253-0.44-0.316 0.229-0.093 0.629-0.4 0.628-0.999zM16.361 13.252h-0.020c-0.12 0.072-0.26 0.075-0.44 0.075h-1.101v-0.831h1.1c0.16 0 0.32 0.005 0.44 0.067 0.12 0.053 0.2 0.171 0.2 0.333s-0.063 0.293-0.179 0.356zM21.227 12.497h0.843v-0.8h-0.859c-0.619 0-1.072 0.14-1.36 0.44-0.381 0.4-0.483 0.92-0.483 1.48 0 0.683 0.164 1.111 0.48 1.432 0.309 0.317 0.86 0.413 1.293 0.413h1.040l0.34-0.836h1.853l0.349 0.836h1.813v-2.813l1.696 2.813h1.267l0.003 0.003v-3.751h-0.912v2.617l-1.573-2.613h-1.36v3.481l-1.511-3.541h-1.339l-1.257 2.96h-0.4c-0.236 0-0.483-0.040-0.624-0.179-0.167-0.2-0.248-0.48-0.248-0.883 0-0.38 0.107-0.68 0.259-0.84 0.177-0.18 0.363-0.22 0.689-0.22zM23.451 12.353l0.619 1.491v0.003h-1.24zM3.173 14.627l0.339 0.837h1.821v-2.94l1.296 2.94h0.779l1.297-2.936 0.020 2.936h0.92v-3.747h-1.488l-1.076 2.539-1.168-2.54h-1.456v3.551l-1.517-3.551h-1.329l-1.597 3.747h0.96l0.347-0.835zM2.256 12.353l0.613 1.491-0.004 0.003h-1.22zM15.808 18.16h-2.856l-1.133 1.231-1.1-1.229h-3.591v3.76h3.539l1.14-1.243 1.099 1.24h1.736v-1.253h1.117c0.8 0 1.56-0.219 1.56-1.26l-0.008-0.004c0-1.040-0.797-1.24-1.503-1.241zM10.227 21.137l-0.019-0.003h-2.181v-0.743h1.96v-0.765h-1.96v-0.68h2.24l0.977 1.093zM13.749 21.577l-1.373-1.529 1.373-1.477zM15.82 19.9h-1.18v-0.956h1.18c0.32 0 0.56 0.131 0.56 0.459 0 0.324-0.2 0.496-0.56 0.497zM13.289 12.497v-0.781h-2.983v3.751h2.983v-0.773h-2.089v-0.752h2.036v-0.768h-2.036v-0.676z"></path>
</symbol>
<symbol id="icon-applepay" viewBox="0 0 32 32">
<path d="M5.851 11.045c-0.376 0.449-0.976 0.803-1.576 0.752-0.075-0.607 0.219-1.251 0.563-1.649 0.376-0.461 1.032-0.788 1.563-0.815 0.063 0.632-0.181 1.251-0.549 1.712zM6.393 11.917c-0.868-0.051-1.613 0.5-2.024 0.5-0.42 0-1.051-0.475-1.739-0.461-0.893 0.013-1.724 0.524-2.18 1.34-0.939 1.629-0.244 4.044 0.661 5.371 0.444 0.657 0.976 1.377 1.676 1.352 0.661-0.025 0.924-0.436 1.724-0.436 0.807 0 1.037 0.436 1.739 0.424 0.724-0.013 1.18-0.657 1.624-1.315 0.507-0.747 0.713-1.472 0.725-1.511-0.013-0.013-1.4-0.549-1.413-2.167-0.012-1.353 1.093-1.997 1.144-2.035-0.624-0.936-1.6-1.037-1.937-1.063zM11.413 10.085v9.852h1.513v-3.368h2.093c1.912 0 3.256-1.328 3.256-3.248 0-1.921-1.319-3.236-3.205-3.236zM12.927 11.375h1.744c1.312 0 2.061 0.707 2.061 1.952s-0.749 1.96-2.068 1.96h-1.739zM21.039 20.012c0.951 0 1.832-0.485 2.232-1.257h0.031v1.183h1.4v-4.904c0-1.421-1.125-2.339-2.856-2.339-1.607 0-2.793 0.929-2.837 2.205h1.363c0.112-0.607 0.668-1.004 1.431-1.004 0.925 0 1.444 0.436 1.444 1.239v0.543l-1.888 0.115c-1.756 0.107-2.707 0.833-2.707 2.097 0 1.276 0.981 2.123 2.388 2.123zM21.445 18.844c-0.807 0-1.32-0.392-1.32-0.992 0-0.62 0.495-0.98 1.439-1.037l1.68-0.107v0.556c0 0.923-0.773 1.58-1.799 1.58zM26.571 22.617c1.475 0 2.168-0.569 2.773-2.295l2.656-7.533h-1.537l-1.781 5.82h-0.031l-1.781-5.82h-1.581l2.561 7.173-0.137 0.436c-0.231 0.739-0.605 1.023-1.275 1.023-0.119 0-0.349-0.013-0.444-0.025v1.183c0.088 0.025 0.463 0.037 0.577 0.039z"></path>
</symbol>
<symbol id="icon-twitter1" viewBox="0 0 32 32">
<path fill="#1da1f2" style="fill: var(--color2, #1da1f2)" d="M31.939 6.092c-1.18 0.519-2.44 0.872-3.767 1.033 1.352-0.815 2.392-2.099 2.884-3.631-1.268 0.74-2.673 1.279-4.169 1.579-1.195-1.279-2.897-2.079-4.788-2.079-3.623 0-6.56 2.937-6.56 6.556 0 0.52 0.060 1.020 0.169 1.499-5.453-0.257-10.287-2.876-13.521-6.835-0.569 0.963-0.888 2.081-0.888 3.3 0 2.28 1.16 4.284 2.917 5.461-1.076-0.035-2.088-0.331-2.971-0.821v0.081c0 3.18 2.257 5.832 5.261 6.436-0.551 0.148-1.132 0.228-1.728 0.228-0.419 0-0.82-0.040-1.221-0.115 0.841 2.604 3.26 4.503 6.139 4.556-2.24 1.759-5.079 2.807-8.136 2.807-0.52 0-1.039-0.031-1.56-0.089 2.919 1.859 6.357 2.945 10.076 2.945 12.072 0 18.665-9.995 18.665-18.648 0-0.279 0-0.56-0.020-0.84 1.281-0.919 2.4-2.080 3.28-3.397z"></path>
</symbol>
<symbol id="icon-uber" viewBox="0 0 32 32">
<path d="M0 10.627v6.613c0 2.493 1.733 4.133 4 4.133 1.107 0 2.080-0.427 2.787-1.16v0.987h1.573v-10.573h-1.587v6.52c0 1.68-1.133 2.813-2.587 2.813-1.48 0-2.6-1.107-2.6-2.813v-6.52h-1.587zM9.92 10.627v10.573h1.507v-0.973c0.697 0.708 1.666 1.147 2.737 1.147 0.003 0 0.007 0 0.010 0h-0.001c0.012 0 0.026 0 0.040 0 2.209 0 4-1.791 4-4 0-0.014-0-0.028-0-0.042l0 0.002c0-0 0-0 0-0 0-2.209-1.791-4-4-4-0.014 0-0.028 0-0.042 0l0.002-0c-0.002 0-0.005 0-0.007 0-1.068 0-2.033 0.439-2.725 1.146l-0.001 0.001v-3.853h-1.52zM23.080 13.333c-2.253 0-3.96 1.84-3.96 4 0 2.307 1.787 4 4.093 4 1.413 0 2.56-0.587 3.32-1.613l-1.093-0.827c-0.573 0.773-1.333 1.107-2.227 1.107-1.293 0-2.333-0.907-2.547-2.16h6.267v-0.507c0-2.28-1.64-4-3.853-4zM31.467 13.44c-0.84 0-1.467 0.387-1.84 1v-0.947h-1.507v7.707h1.52v-4.387c0-1.187 0.733-1.96 1.733-1.96h0.627v-1.427h-0.533zM23.053 14.667c1.133 0 2.080 0.787 2.333 1.96h-4.72c0.307-1.173 1.253-1.96 2.387-1.96zM14.067 14.667c1.453 0 2.64 1.2 2.64 2.667 0 1.507-1.187 2.667-2.64 2.667-1.467-0.008-2.653-1.199-2.653-2.667 0 0 0-0 0-0v0c0 0 0-0 0-0 0-1.468 1.186-2.659 2.653-2.667h0.001z"></path>
</symbol>
<symbol id="icon-ubereats" viewBox="0 0 32 32">
<path fill="#5fb709" style="fill: var(--color3, #5fb709)" d="M0 3.667v6.787c0 2.56 1.787 4.253 4.107 4.253 1.133 0 2.147-0.44 2.867-1.2v1.013h1.613v-10.853h-1.627v6.693c0 1.72-1.16 2.88-2.667 2.88-1.52 0-2.667-1.133-2.667-2.88v-6.693h-1.627zM9.8 3.667v10.853h1.533v-1c0.717 0.733 1.716 1.187 2.821 1.187 0.007 0 0.013-0 0.020-0h-0.001c0.008 0 0.017 0 0.027 0 2.275 0 4.12-1.845 4.12-4.12 0-0.005 0-0.009-0-0.014v0.001c0-0.004 0-0.009 0-0.013 0-2.275-1.845-4.12-4.12-4.12-0.009 0-0.019 0-0.028 0h0.001c-1.107 0-2.093 0.453-2.84 1.173v-3.947h-1.533zM23.013 6.453c-2.347 0-4.067 1.88-4.067 4.107 0 2.36 1.827 4.107 4.2 4.107 1.44 0 2.627-0.613 3.413-1.667l-1.133-0.84c-0.587 0.787-1.36 1.173-2.28 1.173-1.333 0-2.4-0.973-2.613-2.253h6.427v-0.52c0-2.347-1.667-4.107-3.947-4.107zM31.267 6.547c-0.867 0-1.493 0.4-1.88 1.040v-0.973h-1.56v7.907h1.573v-4.52c0-1.2 0.747-2 1.76-2h0.653v-1.453h-0.547zM22.973 7.813c1.173 0 2.147 0.813 2.413 2.027h-4.827c0.28-1.213 1.253-2.027 2.413-2.027zM14.067 7.84c1.48 0 2.707 1.2 2.707 2.733 0 1.52-1.227 2.76-2.707 2.76-0.004 0-0.009 0-0.014 0-1.502 0-2.72-1.218-2.72-2.72 0-0.014 0-0.028 0-0.042l-0 0.002c0-1.533 1.227-2.733 2.733-2.733zM0 17.28v10.853h7.627v-1.853h-5.56v-2.693h5.413v-1.8h-5.413v-2.653h5.56v-1.853h-7.627zM19.413 17.84v2.28h-1.547v1.813h1.547v4.267c0 1.080 0.76 1.933 2.133 1.933h2.187v-1.813h-1.52c-0.467 0-0.76-0.213-0.76-0.64v-3.747h2.28v-1.813h-2.28v-2.28h-2.040zM12.427 19.92c-2.387 0-4.267 1.867-4.267 4.213 0 2.333 1.88 4.2 4.267 4.2 0.96 0 1.853-0.333 2.56-0.92v0.72h2.027v-8.013h-2.027v0.72c-0.68-0.572-1.566-0.92-2.533-0.92-0.009 0-0.019 0-0.028 0h0.001zM28.053 19.92c-2.12 0-3.6 0.867-3.6 2.56 0 1.16 0.813 1.92 2.573 2.293l1.933 0.453c0.76 0.147 0.96 0.347 0.96 0.667 0 0.493-0.587 0.813-1.507 0.813-1.16 0-1.827-0.267-2.093-1.147h-2.040c0.293 1.667 1.533 2.773 4.067 2.773 2.32 0 3.653-1.107 3.653-2.653 0-1.093-0.773-1.907-2.413-2.253l-1.72-0.36c-1-0.187-1.32-0.4-1.32-0.747 0-0.48 0.48-0.773 1.373-0.773 0.96 0 1.667 0.267 1.867 1.12h2.027c-0.107-1.64-1.32-2.747-3.76-2.747zM12.6 21.68c1.347 0 2.427 1.080 2.427 2.453s-1.080 2.44-2.427 2.44c-0.004 0-0.009 0-0.013 0-1.34 0-2.427-1.086-2.427-2.427 0-0.005 0-0.009 0-0.014v0.001c0-1.373 1.107-2.453 2.44-2.453z"></path>
</symbol>
<symbol id="icon-visa" viewBox="0 0 32 32">
<path fill="#142787" style="fill: var(--color4, #142787)" d="M23.26 11.497c-0.516-0.195-1.32-0.401-2.32-0.401-2.56 0-4.367 1.291-4.38 3.14-0.016 1.36 1.285 2.125 2.268 2.581 1.009 0.467 1.347 0.76 1.344 1.18-0.007 0.636-0.807 0.924-1.549 0.924-1.021 0-1.581-0.143-2.441-0.5l-0.319-0.148-0.361 2.131c0.621 0.26 1.741 0.483 2.9 0.5 2.721 0 4.5-1.281 4.521-3.252 0.021-1.084-0.68-1.907-2.161-2.584-0.899-0.44-1.459-0.735-1.459-1.181 0-0.395 0.479-0.816 1.479-0.816 0.86-0.013 1.461 0.172 1.94 0.364l0.24 0.108 0.361-2.059zM29.904 11.271h-2c-0.623 0-1.088 0.169-1.361 0.788l-3.847 8.712h2.721l0.544-1.427 3.32 0.003c0.081 0.333 0.32 1.424 0.32 1.424h2.399zM12.88 11.191h2.591l-1.62 9.505h-2.592l1.621-9.508zM6.295 16.429l0.269 1.32 2.535-6.479h2.745l-4.081 9.487h-2.739l-2.24-8.035c-0.047-0.137-0.104-0.231-0.24-0.316-0.757-0.396-1.604-0.719-2.544-0.943l0.033-0.2h4.175c0.565 0.021 1.021 0.2 1.177 0.805l0.909 4.364zM26.705 17.399l1.033-2.659c-0.013 0.027 0.213-0.549 0.344-0.907l0.177 0.82 0.599 2.743h-2.153z"></path>
</symbol>
<symbol id="icon-youtube" viewBox="0 0 32 32">
<path fill="#f00" style="fill: var(--color5, #f00)" d="M31.327 8.273c-0.386-1.353-1.431-2.398-2.756-2.777l-0.028-0.007c-2.493-0.668-12.528-0.668-12.528-0.668s-10.009-0.013-12.528 0.668c-1.353 0.386-2.398 1.431-2.777 2.756l-0.007 0.028c-0.443 2.281-0.696 4.903-0.696 7.585 0 0.054 0 0.109 0 0.163l-0-0.008c-0 0.037-0 0.082-0 0.126 0 2.682 0.253 5.304 0.737 7.845l-0.041-0.26c0.386 1.353 1.431 2.398 2.756 2.777l0.028 0.007c2.491 0.669 12.528 0.669 12.528 0.669s10.008 0 12.528-0.669c1.353-0.386 2.398-1.431 2.777-2.756l0.007-0.028c0.425-2.233 0.668-4.803 0.668-7.429 0-0.099-0-0.198-0.001-0.297l0 0.015c0.001-0.092 0.001-0.201 0.001-0.31 0-2.626-0.243-5.196-0.708-7.687l0.040 0.258zM12.812 20.801v-9.591l8.352 4.803z"></path>
</symbol>
</defs>
</svg>
