<svg aria-hidden="true" style="position: absolute; width: 0; height: 0; overflow: hidden;" version="1.1" xmlns="http://www.w3.org/2000/svg" xmlns:xlink="http://www.w3.org/1999/xlink">
<defs>
<symbol id="icon-volume_off" viewBox="0 0 24 24">
<path d="M12 3.984v4.219l-2.109-2.109zM4.266 3l16.734 16.734-1.266 1.266-2.063-2.063q-1.547 1.313-3.656 1.828v-2.063q1.172-0.328 2.25-1.172l-4.266-4.266v6.75l-5.016-5.016h-3.984v-6h4.734l-4.734-4.734zM18.984 12q0-2.391-1.383-4.219t-3.586-2.484v-2.063q3.047 0.656 5.016 3.117t1.969 5.648q0 2.203-1.031 4.172l-1.5-1.547q0.516-1.266 0.516-2.625zM16.5 12q0 0.422-0.047 0.609l-2.438-2.438v-2.203q1.031 0.516 1.758 1.688t0.727 2.344z"></path>
</symbol>
<symbol id="icon-weekend" viewBox="0 0 24 24">
<path d="M18 5.016q0.797 0 1.406 0.586t0.609 1.383v2.156q-0.891 0.328-1.453 1.078t-0.563 1.734v2.063h-12v-2.063q0-0.984-0.563-1.734t-1.453-1.078v-2.156q0-0.797 0.609-1.383t1.406-0.586h12zM21 9.984q0.797 0 1.406 0.609t0.609 1.406v5.016q0 0.797-0.609 1.383t-1.406 0.586h-18q-0.797 0-1.406-0.586t-0.609-1.383v-5.016q0-0.797 0.609-1.406t1.406-0.609 1.406 0.609 0.609 1.406v3h13.969v-3q0-0.797 0.609-1.406t1.406-0.609z"></path>
</symbol>
<symbol id="icon-toys" viewBox="0 0 24 24">
<path d="M12 12q0 2.25-1.617 3.867t-3.867 1.617-3.891-1.617-1.641-3.867h11.016zM12 12q-2.25 0-3.867-1.617t-1.617-3.867 1.617-3.891 3.867-1.641v11.016zM12 12q2.25 0 3.867 1.617t1.617 3.867-1.617 3.891-3.867 1.641v-11.016zM12 12q0-2.25 1.617-3.867t3.867-1.617 3.891 1.617 1.641 3.867h-11.016z"></path>
</symbol>
<symbol id="icon-local_restaurant" viewBox="0 0 24 24">
<path d="M14.859 11.531l-1.453 1.453 6.891 6.891-1.406 1.406-6.891-6.891-6.891 6.891-1.406-1.406 9.75-9.75q-0.563-1.125-0.164-2.625t1.57-2.672q1.453-1.453 3.234-1.664t2.859 0.867 0.867 2.883-1.664 3.258q-1.172 1.172-2.672 1.547t-2.625-0.188zM8.109 13.359l-4.219-4.219q-1.172-1.172-1.172-2.813t1.172-2.813l7.031 6.984z"></path>
</symbol>
<symbol id="icon-wifi" viewBox="0 0 24 24">
<path d="M5.016 12.984q2.906-2.859 7.008-2.859t6.961 2.859l-1.969 2.016q-0.844-0.844-2.32-1.453t-2.695-0.609-2.695 0.609-2.32 1.453zM9 17.016q1.266-1.266 3-1.266t3 1.266l-3 3zM0.984 9q4.594-4.547 11.039-4.547t10.992 4.547l-2.016 2.016q-3.75-3.703-9-3.703t-9 3.703z"></path>
</symbol>
<symbol id="icon-power_off" viewBox="0 0 24 24">
<path d="M7.219 7.219q11.109 11.156 13.5 13.5l-1.266 1.266-4.453-4.453-0.516 0.469v3h-4.969v-3l-3.516-3.516v-5.484q0-0.234 0.047-0.375l-3.328-3.375 1.266-1.266 3.188 3.234h0.047zM18 14.484l-0.469 0.516-9.516-9.516v-2.484h1.969v3.984h4.031v-3.984h1.969v3.984q0.75 0 1.383 0.633t0.633 1.383v5.484z"></path>
</symbol>
<symbol id="icon-wifi_off" viewBox="0 0 24 24">
<path d="M9 17.016q1.266-1.266 3-1.266t3 1.266l-3 3zM2.016 3.047l1.266-1.266 16.969 16.969-1.266 1.266-7.078-7.078q-1.172 0-2.625 0.609t-2.297 1.453l-1.969-1.969v-0.047q1.828-1.828 4.406-2.531l-2.25-2.203q-2.297 0.938-4.172 2.766l-2.016-2.016q1.828-1.828 4.078-2.906zM18.984 12.984l-0.938 0.984-3.563-3.516q2.672 0.703 4.5 2.531zM22.969 9l-1.969 2.016q-3.938-4.031-9.656-3.703l-2.484-2.531q3.797-0.797 7.523 0.281t6.586 3.938z"></path>
</symbol>
<symbol id="icon-alarm_on" viewBox="0 0 24 24">
<path d="M10.547 14.531l4.922-4.969 1.078 1.078-6 6-3.188-3.188 1.031-1.031zM12 20.016q2.906 0 4.945-2.063t2.039-4.969-2.039-4.945-4.945-2.039-4.945 2.039-2.039 4.945 2.039 4.969 4.945 2.063zM12 3.984q3.75 0 6.375 2.648t2.625 6.352-2.625 6.352-6.375 2.648-6.375-2.648-2.625-6.352 2.625-6.352 6.375-2.648zM7.875 3.375l-4.594 3.844-1.266-1.5 4.594-3.844zM21.984 5.719l-1.266 1.547-4.594-3.891 1.266-1.5z"></path>
</symbol>
<symbol id="icon-emoji_food_beverage" viewBox="0 0 24 24">
<path d="M3.984 18.984h16.031v2.016h-16.031v-2.016zM20.016 8.016v-3h-2.016v3h2.016zM20.016 3q0.844 0 1.406 0.586t0.563 1.43v3q0 0.844-0.563 1.406t-1.406 0.563h-2.016v3q0 1.641-1.172 2.836t-2.813 1.195h-6q-1.641 0-2.836-1.195t-1.195-2.836v-9.984h4.031v2.391l-1.828 1.453q-0.188 0.141-0.188 0.375v4.266q0 0.516 0.516 0.516h3.984q0.516 0 0.516-0.516v-4.266q0-0.234-0.188-0.375l-1.828-1.453v-2.391h11.016z"></path>
</symbol>
<symbol id="icon-nightlife" viewBox="0 0 24 24">
<path d="M17.016 5.016h4.969v3h-3v9q0 1.219-0.891 2.109t-2.109 0.891-2.109-0.891-0.891-2.109 0.891-2.109 2.109-0.891q0.609 0 1.031 0.141v-9.141zM10.078 9l1.406-2.016h-6.984l1.406 2.016h4.172zM0.984 5.016h14.016l-6 9v3.984h2.016v2.016h-6v-2.016h1.969v-3.984z"></path>
</symbol>
<symbol id="icon-child_care" viewBox="0 0 24 24">
<path d="M7.5 14.016h9q-0.563 1.359-1.781 2.18t-2.719 0.82-2.719-0.82-1.781-2.18zM12 18.984q2.391 0 4.242-1.406t2.461-3.609q0.047 0 0.141 0.023t0.141 0.023q0.797 0 1.406-0.609t0.609-1.406-0.609-1.406-1.406-0.609q-0.047 0-0.141 0.023t-0.141 0.023q-0.609-2.203-2.461-3.609t-4.242-1.406-4.242 1.406-2.461 3.609q-0.047 0-0.141-0.023t-0.141-0.023q-0.797 0-1.406 0.609t-0.609 1.406 0.609 1.406 1.406 0.609q0.047 0 0.141-0.023t0.141-0.023q0.609 2.203 2.461 3.609t4.242 1.406zM22.922 12.656q-0.188 1.031-0.984 1.969t-1.781 1.219q-1.031 2.203-3.258 3.68t-4.898 1.477q-3.328 0-5.953-2.297-1.453-1.266-2.156-2.859-0.984-0.281-1.805-1.219t-1.008-1.969q-0.094-0.375-0.094-0.656t0.094-0.656q0.188-1.031 1.008-1.969t1.805-1.219q0.797-1.781 2.156-2.906 2.531-2.25 5.953-2.25t5.953 2.25q1.453 1.359 2.156 2.906 0.984 0.281 1.805 1.219t1.008 1.969q0.094 0.375 0.094 0.656t-0.094 0.656zM8.25 10.5q0-0.516 0.375-0.891t0.891-0.375 0.867 0.375 0.352 0.891-0.352 0.891-0.867 0.375-0.891-0.375-0.375-0.891zM13.266 10.5q0-0.516 0.352-0.891t0.867-0.375 0.891 0.375 0.375 0.891-0.375 0.891-0.891 0.375-0.867-0.375-0.352-0.891z"></path>
</symbol>
<symbol id="icon-child_friendly" viewBox="0 0 24 24">
<path d="M17.016 20.016q0.609 0 1.055-0.445t0.445-1.055-0.445-1.055-1.055-0.445-1.055 0.445-0.445 1.055 0.445 1.055 1.055 0.445zM8.016 20.016q0.609 0 1.055-0.445t0.445-1.055-0.445-1.055-1.055-0.445-1.055 0.445-0.445 1.055 0.445 1.055 1.055 0.445zM19.313 15.891q1.172 1.078 1.172 2.625 0 1.453-1.008 2.461t-2.461 1.008q-1.313 0-2.297-0.867t-1.172-2.133h-2.109q-0.188 1.266-1.148 2.133t-2.273 0.867q-1.453 0-2.484-1.008t-1.031-2.461q0-2.063 1.828-3.094l-2.109-4.406h-2.203v-2.016h3.469l0.938 2.016h14.578q0 1.125-0.492 2.555t-1.195 2.32zM12.984 2.016q3.328 0 5.672 2.344t2.344 5.625h-8.016v-7.969z"></path>
</symbol>
<symbol id="icon-smoke_free" viewBox="0 0 24 24">
<path d="M17.016 15.938l-2.953-2.953h2.953v2.953zM14.484 8.719q-1.359 0-2.344-1.008t-0.984-2.367 0.984-2.344 2.344-0.984v1.5q-0.797 0-1.313 0.492t-0.516 1.242q0 0.797 0.539 1.406t1.289 0.609h1.547q1.406 0 2.438 0.914t1.031 2.227v1.594h-1.5v-1.266q0-0.938-0.586-1.477t-1.383-0.539h-1.547zM18.844 4.875q1.406 0.656 2.273 2.016t0.867 3.047v2.063h-1.5v-2.063q0-1.688-1.148-2.883t-2.836-1.195v-1.5q0.75 0 1.289-0.539t0.539-1.336h1.5q0 1.406-0.984 2.391zM18 12.984h1.5v3h-1.5v-3zM20.484 12.984h1.5v3h-1.5v-3zM2.016 6l1.219-1.266 17.016 17.016-1.266 1.266-6.984-7.031h-9.984v-3h6.984z"></path>
</symbol>
<symbol id="icon-smoking_rooms" viewBox="0 0 24 24">
<path d="M16.031 10.219q1.453 0 2.461 0.891t1.008 2.25v1.641h-1.5v-1.313q0-0.938-0.586-1.477t-1.383-0.539h-1.547q-1.359 0-2.344-1.008t-0.984-2.367 0.984-2.344 2.344-0.984v1.5q-0.797 0-1.313 0.492t-0.516 1.242q0 0.797 0.539 1.406t1.289 0.609h1.547zM18.844 7.734q1.406 0.656 2.273 2.016t0.867 3v2.25h-1.5v-2.25q0-1.688-1.148-2.859t-2.836-1.172v-1.5q0.75 0 1.289-0.539t0.539-1.336q0-0.75-0.539-1.289t-1.289-0.539v-1.5q1.359 0 2.344 0.984t0.984 2.344q0 1.406-0.984 2.391zM18 15.984h1.5v3h-1.5v-3zM20.484 15.984h1.5v3h-1.5v-3zM2.016 15.984h15v3h-15v-3z"></path>
</symbol>
<symbol id="icon-goat" viewBox="0 0 24 24">
<path d="M23.953 9.094q0.047 0.047 0.047 0.117t-0.047 0.117l-1.172 1.5q-0.094 0.094-0.188 0.094l-0.703-0.141-0.328 1.031q-0.094 0.188-0.305 0.188t-0.305-0.188l-0.656-1.406-1.078-0.234-2.203 5.25 0.797 6.375q0 0.188-0.188 0.188h-0.938q-0.094 0-0.188-0.141l-0.938-3.797-0.469-0.797-1.172 4.594q0 0.141-0.188 0.141h-0.984q-0.188 0-0.188-0.188l1.078-6.328h-6.328l-1.641 3.094 0.375 3.188q0.094 0.234-0.188 0.234h-0.938q-0.141 0-0.188-0.094l-1.313-4.781-1.594 1.828 0.281 2.813q0.094 0.234-0.188 0.234h-1.031q-0.188 0-0.188-0.094l-0.609-2.625 0.984-3.844v-6.75q-1.078-0.422-1.078-1.406h12.844q2.25 0.047 4.453-1.547-0.375-1.031 0.281-1.688 1.313 0.938 1.688 1.172 0.328 0.188 0.539-0.070t0.117-0.586q-0.422-1.313-2.109-1.969-0.047 0-0.141-0.047-0.563-0.141-0.469-0.375 0-0.141 0.188-0.141 1.359 0.188 2.32 1.055t1.289 1.664l0.188 0.141q0.141 0.188 0.305 0.375t0.281 0.539 0.070 0.727q0 0.234 0.094 0.328z"></path>
</symbol>
<symbol id="icon-pets" viewBox="0 0 24 24">
<path d="M17.344 14.859l0.797 0.797t0.398 0.422 0.375 0.445 0.352 0.445 0.305 0.469 0.234 0.516 0.141 0.539 0.047 0.563-0.023 0.586q-0.516 1.969-2.344 2.344-0.328 0.047-2.273-0.188t-3.258-0.234h-0.188q-1.313 0-3.258 0.234t-2.273 0.188q-1.828-0.375-2.344-2.344-0.141-0.938 0.328-1.922t0.867-1.406 1.43-1.453q0.469-0.516 1.242-1.453t1.242-1.453q0.844-1.031 1.734-1.313 0.188-0.094 0.328-0.094 0.281-0.047 0.797-0.047 0.563 0 0.797 0.047 0.141 0 0.328 0.094 0.891 0.281 1.734 1.313 0.422 0.516 1.219 1.453t1.266 1.453zM17.016 9.516q0-1.031 0.727-1.781t1.758-0.75 1.758 0.75 0.727 1.781-0.727 1.758-1.758 0.727-1.758-0.727-0.727-1.758zM12.516 5.484q0-1.031 0.727-1.758t1.758-0.727 1.758 0.727 0.727 1.758-0.727 1.781-1.758 0.75-1.758-0.75-0.727-1.781zM6.516 5.484q0-1.031 0.727-1.758t1.758-0.727 1.758 0.727 0.727 1.758-0.727 1.781-1.758 0.75-1.758-0.75-0.727-1.781zM2.016 9.516q0-1.031 0.727-1.781t1.758-0.75 1.758 0.75 0.727 1.781-0.727 1.758-1.758 0.727-1.758-0.727-0.727-1.758z"></path>
</symbol>
<symbol id="icon-smoking_rooms1" viewBox="0 0 24 24">
<path d="M16.031 10.219q1.453 0 2.461 0.891t1.008 2.25v1.641h-1.5v-1.313q0-0.938-0.586-1.477t-1.383-0.539h-1.547q-1.359 0-2.344-1.008t-0.984-2.367 0.984-2.344 2.344-0.984v1.5q-0.797 0-1.313 0.492t-0.516 1.242q0 0.797 0.539 1.406t1.289 0.609h1.547zM18.844 7.734q1.406 0.656 2.273 2.016t0.867 3v2.25h-1.5v-2.25q0-1.688-1.148-2.859t-2.836-1.172v-1.5q0.75 0 1.289-0.539t0.539-1.336q0-0.75-0.539-1.289t-1.289-0.539v-1.5q1.359 0 2.344 0.984t0.984 2.344q0 1.406-0.984 2.391zM18 15.984h1.5v3h-1.5v-3zM20.484 15.984h1.5v3h-1.5v-3zM2.016 15.984h15v3h-15v-3z"></path>
</symbol>
<symbol id="icon-wifi-full" viewBox="0 0 24 24">
<path d="M6.984 15.918l1.416 1.416c0.922-0.922 2.195-1.494 3.6-1.494s2.678 0.572 3.6 1.494l1.416-1.416c-1.284-1.283-3.057-2.078-5.016-2.078s-3.732 0.795-5.016 2.078zM3.758 12.691l1.418 1.418c1.748-1.749 4.162-2.832 6.824-2.832s5.076 1.083 6.824 2.832l1.418-1.418c-2.109-2.109-5.023-3.414-8.242-3.414s-6.133 1.305-8.242 3.414zM12 4.715c-4.479 0-8.533 1.815-11.469 4.751l1.419 1.419c2.575-2.575 6.13-4.17 10.050-4.17s7.475 1.595 10.050 4.17l1.419-1.419c-2.936-2.936-6.99-4.751-11.469-4.751zM12 18c-0.828 0-1.5 0.672-1.5 1.5s0.672 1.5 1.5 1.5 1.5-0.672 1.5-1.5-0.672-1.5-1.5-1.5z"></path>
</symbol>
<symbol id="icon-battery-charging" viewBox="0 0 24 24">
<path d="M20.812 8c-0.412-1.164-1.523-2-2.826-2h-14.988c-1.653 0-2.998 1.346-2.998 3v7c0 1.654 1.345 3 2.998 3h14.987c1.303 0 2.414-0.836 2.826-2h2.169v-9h-2.168zM18.983 16c0 0.551-0.447 1-0.998 1h-14.987c-0.552 0-1-0.449-1-1v-7c0-0.551 0.448-1 1-1h14.987c0.551 0 0.998 0.449 0.998 1v7zM20.982 15h-0.999v-5h0.999v5zM10.097 15l0.998-2h4.996l-5.994-3-1 2h-4.996l5.996 3z"></path>
</symbol>
<symbol id="icon-screen" viewBox="0 0 24 24">
<path d="M0 2v14h9.75l-1.75 3h8l-1.75-3h9.75v-14h-24zM22 14h-20v-10h20v10zM17 20h-10c-0.55 0-1 0.45-1 1s0.45 1 1 1h10c0.55 0 1-0.45 1-1s-0.45-1-1-1z"></path>
</symbol>
<symbol id="icon-phone" viewBox="0 0 24 24">
<path d="M16 3h-8c-1.1 0-2 0.9-2 2v14c0 1.1 0.9 2 2 2h8c1.1 0 2-0.9 2-2v-14c0-1.1-0.9-2-2-2zM13 20h-2v-2h2v2zM16 17h-8v-12h8v12z"></path>
</symbol>
<symbol id="icon-tablet" viewBox="0 0 24 24">
<path d="M19 1h-14c-1.1 0-2 0.9-2 2v18c0 1.1 0.9 2 2 2h14c1.1 0 2-0.9 2-2v-18c0-1.1-0.9-2-2-2zM13 22h-2v-2h2v2zM19 19h-14v-16h14v16z"></path>
</symbol>
<symbol id="icon-laptop" viewBox="0 0 24 24">
<path d="M3 6h18v10h2v-12h-22v12h2v-10zM16 17c-0.192 0.402-1.145 0.725-2 0.886v0.114h-4v-0.114c-0.855-0.161-1.808-0.484-2-0.886h-8v1c0 1.1 3 2 3 2h18c0 0 3-0.9 3-2v-1h-8zM20 19h-1v-1h1v1z"></path>
</symbol>
<symbol id="icon-diamond" viewBox="0 0 24 24">
<path d="M17.408 1.967h-10.816l-6.592 6.533 12 13.533 12-13.533-6.592-6.533zM21.594 9.028l-0.014-0.061h-8.902l4.268-4.609 4.648 4.67zM10.398 17.386l-7.023-7.419h4.625l-0.465 0.223 2.863 7.196zM8.537 9.967h6.924l-3.461 8.654-3.463-8.654zM16 9.967h4.623l-7.023 7.419 2.863-7.196-0.463-0.223zM12 8.229l-3.914-4.262h7.826l-3.912 4.262zM7.053 4.396l4.268 4.571h-8.903l-0.012 0.023 4.647-4.594z"></path>
</symbol>
<symbol id="icon-atom" viewBox="0 0 24 24">
<path d="M12 8.999c-1.656 0-3 1.344-3 3s1.344 3 3 3 3-1.344 3-3-1.344-3-3-3zM21.231 9.365c-0.325-0.105-0.618-0.272-0.869-0.493-0.404 0.744-0.902 1.507-1.439 2.272-0.835-1.073-1.788-2.156-2.851-3.219-1.055-1.055-2.142-2.012-3.226-2.854 2.577-1.816 5.054-2.909 6.817-2.909 0.716 0 1.264 0.185 1.628 0.549 0.396 0.396 0.571 1.018 0.54 1.806 0.057-0.004 0.11-0.018 0.168-0.018 0.288 0 0.562 0.059 0.819 0.148 0.062-1.121-0.204-2.027-0.82-2.644-0.559-0.559-1.344-0.842-2.335-0.842-2.043 0-4.812 1.219-7.662 3.277-2.85-2.058-5.619-3.278-7.662-3.278-0.212 0-0.411 0.020-0.604 0.046 0.273 0.264 0.479 0.59 0.61 0.955 1.763 0.002 4.238 1.095 6.813 2.91-1.086 0.844-2.174 1.801-3.228 2.856-1.050 1.051-2.007 2.14-2.856 3.234-0.855-1.211-1.56-2.412-2.065-3.553-0.346-0.779-0.577-1.494-0.712-2.14-0.099 0.013-0.195 0.031-0.297 0.031-0.258 0-0.502-0.051-0.736-0.123 0.134 0.796 0.405 1.678 0.831 2.638 0.567 1.281 1.365 2.632 2.345 3.988-0.979 1.354-1.775 2.705-2.343 3.985-1.209 2.727-1.241 4.861-0.091 6.011 0.559 0.559 1.344 0.842 2.335 0.842 3.020 0 7.626-2.656 11.735-6.767 1.053-1.054 2.011-2.146 2.859-3.243 2.77 3.914 3.564 7.25 2.355 8.459-0.364 0.364-0.912 0.549-1.628 0.549-0.943 0-2.095-0.318-3.354-0.887-0.133 0.32-0.33 0.604-0.575 0.842 1.458 0.675 2.804 1.045 3.929 1.045 0.991 0 1.776-0.283 2.335-0.842 1.738-1.738 0.641-5.731-2.449-10.011 0.635-0.881 1.215-1.761 1.683-2.62zM4.341 21.84c-0.716 0-1.264-0.185-1.628-0.549-0.825-0.825-0.717-2.61 0.298-4.898 0.505-1.14 1.209-2.339 2.062-3.55 0.849 1.093 1.805 2.182 2.854 3.23 1.061 1.061 2.154 2.001 3.246 2.846-2.583 1.824-5.067 2.921-6.832 2.921zM15.369 15.366c-1.094 1.094-2.232 2.082-3.364 2.942-1.135-0.862-2.274-1.847-3.371-2.942-1.094-1.094-2.079-2.229-2.943-3.364 0.864-1.137 1.852-2.273 2.946-3.368 1.093-1.094 2.232-2.082 3.365-2.944 1.132 0.861 2.27 1.849 3.363 2.942 1.136 1.136 2.114 2.265 2.952 3.36-0.864 1.14-1.851 2.277-2.948 3.374zM22 5.999c-0.553 0-1 0.447-1 1s0.447 1 1 1 1-0.447 1-1-0.447-1-1-1zM14 18.999c-0.553 0-1 0.447-1 1s0.447 1 1 1 1-0.447 1-1-0.447-1-1-1zM2 3.999c0.553 0 1-0.447 1-1s-0.447-1-1-1-1 0.447-1 1 0.447 1 1 1z"></path>
</symbol>
<symbol id="icon-pencil" viewBox="0 0 24 24">
<path d="M12.91 0.604l-8.799 15.705 0.045 0.023 0.445 7.064 6.447-3.202 0.041 0.023 8.799-15.704-6.978-3.909zM6.055 20.9l-0.061-3.539 3.199 1.793-3.138 1.746zM10.322 17.496l-3.488-1.955 5.377-9.597 3.49 1.954-5.379 9.598zM12.699 5.071l0.979-1.745 3.488 1.955-0.977 1.744-3.49-1.954z"></path>
</symbol>
<symbol id="icon-coffee" viewBox="0 0 32 32">
<path d="M29.984 15.548c-0.378-3.639-4.063-3.618-5.977-3.553 0.009-0.553 0.015-0.999 0.015-0.999l-22.027-0.007c0 0 0 3.014 0 3.089 0 4.281 2.445 7.984 6.011 9.809v1.068h10.019v-1.068c1-0.512 1.897-1.184 2.691-1.961 4.915-1.176 10.070-2.873 9.268-6.378zM22.25 20.066c1.123-1.725 1.786-3.775 1.786-5.988 0 0.017 0.001-0.029 0.002-0.116 1.785-0.059 3.755-0.237 4.201 1.54 0.448 1.955-2.817 3.547-5.989 4.564zM8.83 6.99c0 1-1.64 2.065-1.64 2.065s3.214-0.574 3.214-2.074-3.187-0.5-3.187-1.625 1.577-2.19 1.577-2.19-3.025 0.637-3.025 2.199 3.061 0.625 3.061 1.625zM13.83 7.99c0 1-1.64 2.065-1.64 2.065s3.214-0.574 3.214-2.074-3.187-0.5-3.187-1.625 1.577-2.19 1.577-2.19-3.026 0.637-3.026 2.199 3.062 0.625 3.062 1.625zM17.83 6.99c0 1-1.64 2.065-1.64 2.065s3.214-0.574 3.214-2.074-3.187-0.5-3.187-1.625 1.577-2.19 1.577-2.19-3.026 0.637-3.026 2.199 3.062 0.625 3.062 1.625zM1.933 25.928c0 1.381 4.925 2.5 11 2.5s11-1.119 11-2.5c0 0.029-22 0.029-22 0z"></path>
</symbol>
<symbol id="icon-cup" viewBox="0 0 32 32">
<path d="M28.111 5.022l-1.215-3.655c-0.271-0.817-1.035-1.367-1.896-1.367h-18c-0.862 0-1.625 0.55-1.898 1.367l-1.225 3.657c-1.044 0.067-1.877 0.915-1.877 1.976v3c0 1.104 0.896 2 2 2h1.034c0 0.075-0.030 0.146-0.021 0.221l2 18c0.112 1.011 0.967 1.779 1.987 1.779h14c1.020 0 1.875-0.768 1.986-1.779l2-18c0.010-0.075-0.021-0.146-0.021-0.221h1.035c1.104 0 2-0.896 2-2v-3c0-1.065-0.84-1.917-1.889-1.978zM7 2h18l1 3h-20l1-3zM9 30l-0.333-3h14.666l-0.333 3h-14zM23.443 26h-14.888l-1.111-10h17.111l-1.112 10zM24.666 15h-17.333l-0.333-3h18l-0.334 3zM28 10h-24v-3h24v3z"></path>
</symbol>
<symbol id="icon-coffee1" viewBox="0 0 20 20">
<path d="M4 11h-2c-1.105 0-2-0.895-2-2v0-4c0-1.1 0.9-2 2-2h2v-2h14v10c0 2.209-1.791 4-4 4v0h-6c-2.209 0-4-1.791-4-4v0zM4 9v-4h-2v4h2zM2 17v-1h18v1l-4 2h-10l-4-2z"></path>
</symbol>
<symbol id="icon-keyboard" viewBox="0 0 20 20">
<path d="M0 6c0-1.1 0.9-2 2-2h16c1.105 0 2 0.895 2 2v0 8c0 1.105-0.895 2-2 2v0h-16c-1.105 0-2-0.895-2-2v0-8zM2 6v2h2v-2h-2zM3 9v2h2v-2h-2zM2 12v2h2v-2h-2zM5 12v2h10v-2h-10zM16 12v2h2v-2h-2zM6 9v2h2v-2h-2zM9 9v2h2v-2h-2zM12 9v2h2v-2h-2zM15 9v2h2v-2h-2zM5 6v2h2v-2h-2zM8 6v2h2v-2h-2zM11 6v2h2v-2h-2zM14 6v2h4v-2h-4z"></path>
</symbol>
<symbol id="icon-tablet1" viewBox="0 0 20 20">
<path d="M2 2c0-1.1 0.9-2 2-2h12c1.105 0 2 0.895 2 2v0 16c0 1.105-0.895 2-2 2v0h-12c-1.105 0-2-0.895-2-2v0-16zM4 2v14h12v-14h-12zM10 19c0.552 0 1-0.448 1-1s-0.448-1-1-1v0c-0.552 0-1 0.448-1 1s0.448 1 1 1v0z"></path>
</symbol>
<symbol id="icon-coffee11" viewBox="0 0 32 32">
<path d="M24 12.998v-2c0-0.553-0.447-1-1-1h-22c-0.553 0-1 0.447-1 1v14.001c0 0.18 0.061 0.339 0.143 0.485 0.697 3.708 3.947 6.516 7.857 6.516h8c2.521 0 4.756-1.177 6.221-3h1.779c4.418 0 8-3.583 8-8.001 0-4.419-3.582-8.001-8-8.001zM24 24.999v-8.001c2.209 0 4 1.791 4 4.001 0 2.209-1.791 4-4 4zM5.198 8.504c-0.149 0.27-0.132 0.493 0.152 0.493 0.282 0 0.669-0.224 0.766-0.491 0.993-2.589-4.222-4.694-1.071-7.887 0.323-0.331 0.454-0.617 0.168-0.619-0.287-0.003-0.876 0.27-1.186 0.592-3.036 3.119 2.583 5.311 1.171 7.912zM8.975 8.516c-0.037 0.258 0.121 0.481 0.402 0.481 0.279 0 0.55-0.223 0.578-0.479 0.221-1.854-1.261-3.555-0.371-5.159 0.014-0.29-0.327-0.578-0.769-0.617s-0.834 0.179-0.849 0.467c-0.107 2.092 1.27 3.427 1.009 5.307zM13.402 8.997c0.279 0 0.5-0.223 0.553-0.47 0.507-2.396 4.648-3.134 1.526-7.413-0.334-0.442-0.927-0.848-1.214-0.852-0.288-0.005-0.313 0.39-0.122 0.827 3.107 2.932 0.124 5.036-1.197 7.438-0.044 0.247 0.176 0.47 0.454 0.47zM17.429 8.997c0.28 0 0.468-0.225 0.549-0.488 0.76-2.543 9.339-4.187 2.125-7.687-0.752-0.356-1.728-0.654-1.941-0.642-0.217 0.015 0.294 0.384 0.936 0.787 5.897 3.865 0.402 2.699-2.119 7.55-0.082 0.255 0.171 0.48 0.45 0.48z"></path>
</symbol>
<symbol id="icon-checkmark" viewBox="0 0 32 32">
<path d="M6 12l-6 6 12 12 20-20-6-6-14 14z"></path>
</symbol>
<symbol id="icon-x" viewBox="0 0 32 32">
<path d="M30 24.398l-8.406-8.398 8.406-8.398-5.602-5.602-8.398 8.402-8.402-8.402-5.598 5.602 8.398 8.398-8.398 8.398 5.598 5.602 8.402-8.402 8.398 8.402z"></path>
</symbol>
<symbol id="icon-rss" viewBox="0 0 32 32">
<path d="M0 28c0-2.209 1.791-4 4-4s4 1.791 4 4c0 2.209-1.791 4-4 4s-4-1.791-4-4zM6 0v4c12.148 0 22 9.851 22 22h4c0-14.358-11.643-26-26-26zM6.023 8.008c-0.008 0-0.015 0.001-0.023 0.001v4c0.008 0 0.015-0.001 0.023-0.001 7.729 0 13.996 6.265 14 13.992h4c-0.004-9.937-8.062-17.992-18-17.992zM6.023 16.008c-0.008 0-0.015 0.001-0.023 0.001v4c0.008 0 0.015-0.001 0.023-0.001 3.311 0 5.996 2.683 6 5.992h4c-0.004-5.519-4.48-9.992-10-9.992z"></path>
</symbol>
<symbol id="icon-rss-alt" viewBox="0 0 32 32">
<path d="M32 32h-4.57c0-15.125-12.305-27.428-27.43-27.428v-4.572c17.641 0 32 14.355 32 32v0zM22.855 32h-4.57c0-10.082-8.207-18.285-18.285-18.285v-4.572c12.602 0 22.855 10.255 22.855 22.857v0zM13.715 32h-4.574c0-5.043-4.098-9.141-9.141-9.141v-4.574c7.562 0 13.715 6.153 13.715 13.715v0zM4.57 32c0-2.523-2.043-4.57-4.57-4.57v4.57h4.57z"></path>
</symbol>
<symbol id="icon-battery-charging1" viewBox="0 0 32 32">
<path d="M28 12v-2c0-1.1-0.9-2-2-2h-24c-1.1 0-2 0.9-2 2v4h6.349c0.825-2.329 3.040-4 5.651-4v2h4v2h-4v4h4v2h-4v2c-2.611 0-4.827-1.671-5.651-4h-6.349v4c0 1.1 0.9 2 2 2h24c1.1 0 2-0.9 2-2v-2h4v-8h-4z"></path>
</symbol>
<symbol id="icon-info" viewBox="0 0 16 32">
<path d="M2 16c1.105 0 2 0.895 2 2v8c0 1.105-0.895 2-2 2h-2v4h16v-4h-1.992c-1.102 0-2.008-0.895-2.008-2l-0.004-14h-11.996v4h2zM4 4c0-2.209 1.791-4 4-4s4 1.791 4 4c0 2.209-1.791 4-4 4s-4-1.791-4-4z"></path>
</symbol>
<symbol id="icon-camera" viewBox="0 0 32 32">
<path d="M9.5 19c0 3.59 2.91 6.5 6.5 6.5s6.5-2.91 6.5-6.5-2.91-6.5-6.5-6.5-6.5 2.91-6.5 6.5zM30 8h-7c-0.5-2-1-4-3-4h-8c-2 0-2.5 2-3 4h-7c-1.1 0-2 0.9-2 2v18c0 1.1 0.9 2 2 2h28c1.1 0 2-0.9 2-2v-18c0-1.1-0.9-2-2-2zM16 27.875c-4.902 0-8.875-3.973-8.875-8.875s3.973-8.875 8.875-8.875c4.902 0 8.875 3.973 8.875 8.875s-3.973 8.875-8.875 8.875zM30 14h-4v-2h4v2z"></path>
</symbol>
<symbol id="icon-music" viewBox="0 0 32 32">
<path d="M30 0h2v23c0 2.761-3.134 5-7 5s-7-2.239-7-5c0-2.761 3.134-5 7-5 1.959 0 3.729 0.575 5 1.501v-11.501l-16 3.556v15.444c0 2.761-3.134 5-7 5s-7-2.239-7-5c0-2.761 3.134-5 7-5 1.959 0 3.729 0.575 5 1.501v-19.501l18-4z"></path>
</symbol>
<symbol id="icon-connection" viewBox="0 0 40 32">
<path d="M20 18c3.308 0 6.308 1.346 8.481 3.519l-2.827 2.827c-1.449-1.449-3.449-2.346-5.654-2.346s-4.206 0.897-5.654 2.346l-2.827-2.827c2.173-2.173 5.173-3.519 8.481-3.519zM5.858 15.858c3.777-3.777 8.8-5.858 14.142-5.858s10.365 2.080 14.142 5.858l-2.828 2.828c-3.022-3.022-7.040-4.686-11.314-4.686s-8.292 1.664-11.314 4.686l-2.828-2.828zM30.899 4.201c3.334 1.41 6.329 3.429 8.899 6v0l-2.828 2.828c-4.533-4.533-10.56-7.029-16.971-7.029s-12.438 2.496-16.971 7.029l-2.828-2.828c2.571-2.571 5.565-4.589 8.899-6 3.453-1.461 7.12-2.201 10.899-2.201s7.446 0.741 10.899 2.201zM18 28c0-1.105 0.895-2 2-2s2 0.895 2 2c0 1.105-0.895 2-2 2s-2-0.895-2-2z"></path>
</symbol>
<symbol id="icon-books" viewBox="0 0 36 32">
<path d="M7 4h-6c-0.55 0-1 0.45-1 1v22c0 0.55 0.45 1 1 1h6c0.55 0 1-0.45 1-1v-22c0-0.55-0.45-1-1-1zM6 10h-4v-2h4v2z"></path>
<path d="M17 4h-6c-0.55 0-1 0.45-1 1v22c0 0.55 0.45 1 1 1h6c0.55 0 1-0.45 1-1v-22c0-0.55-0.45-1-1-1zM16 10h-4v-2h4v2z"></path>
<path d="M23.909 5.546l-5.358 2.7c-0.491 0.247-0.691 0.852-0.443 1.343l8.999 17.861c0.247 0.491 0.852 0.691 1.343 0.443l5.358-2.7c0.491-0.247 0.691-0.852 0.443-1.343l-8.999-17.861c-0.247-0.491-0.852-0.691-1.343-0.443z"></path>
</symbol>
<symbol id="icon-cart" viewBox="0 0 32 32">
<path d="M12 29c0 1.657-1.343 3-3 3s-3-1.343-3-3c0-1.657 1.343-3 3-3s3 1.343 3 3z"></path>
<path d="M32 29c0 1.657-1.343 3-3 3s-3-1.343-3-3c0-1.657 1.343-3 3-3s3 1.343 3 3z"></path>
<path d="M32 16v-12h-24c0-1.105-0.895-2-2-2h-6v2h4l1.502 12.877c-0.915 0.733-1.502 1.859-1.502 3.123 0 2.209 1.791 4 4 4h24v-2h-24c-1.105 0-2-0.895-2-2 0-0.007 0-0.014 0-0.020l26-3.98z"></path>
</symbol>
<symbol id="icon-credit-card" viewBox="0 0 32 32">
<path d="M29 4h-26c-1.65 0-3 1.35-3 3v18c0 1.65 1.35 3 3 3h26c1.65 0 3-1.35 3-3v-18c0-1.65-1.35-3-3-3zM3 6h26c0.542 0 1 0.458 1 1v3h-28v-3c0-0.542 0.458-1 1-1zM29 26h-26c-0.542 0-1-0.458-1-1v-9h28v9c0 0.542-0.458 1-1 1zM4 20h2v4h-2zM8 20h2v4h-2zM12 20h2v4h-2z"></path>
</symbol>
<symbol id="icon-phone1" viewBox="0 0 32 32">
<path d="M22 20c-2 2-2 4-4 4s-4-2-6-4-4-4-4-6 2-2 4-4-4-8-6-8-6 6-6 6c0 4 4.109 12.109 8 16s12 8 16 8c0 0 6-4 6-6s-6-8-8-6z"></path>
</symbol>
<symbol id="icon-pushpin" viewBox="0 0 32 32">
<path d="M17 0l-3 3 3 3-7 8h-7l5.5 5.5-8.5 11.269v1.231h1.231l11.269-8.5 5.5 5.5v-7l8-7 3 3 3-3-15-15zM14 17l-2-2 7-7 2 2-7 7z"></path>
</symbol>
<symbol id="icon-location" viewBox="0 0 32 32">
<path d="M16 0c-5.523 0-10 4.477-10 10 0 10 10 22 10 22s10-12 10-22c0-5.523-4.477-10-10-10zM16 16c-3.314 0-6-2.686-6-6s2.686-6 6-6 6 2.686 6 6-2.686 6-6 6z"></path>
</symbol>
<symbol id="icon-location2" viewBox="0 0 32 32">
<path d="M16 0c-5.523 0-10 4.477-10 10 0 10 10 22 10 22s10-12 10-22c0-5.523-4.477-10-10-10zM16 16.125c-3.383 0-6.125-2.742-6.125-6.125s2.742-6.125 6.125-6.125 6.125 2.742 6.125 6.125-2.742 6.125-6.125 6.125zM12.125 10c0-2.14 1.735-3.875 3.875-3.875s3.875 1.735 3.875 3.875c0 2.14-1.735 3.875-3.875 3.875s-3.875-1.735-3.875-3.875z"></path>
</symbol>
<symbol id="icon-map" viewBox="0 0 32 32">
<path d="M0 6l10-4v24l-10 4z"></path>
<path d="M12 1l10 6v23l-10-5z"></path>
<path d="M24 7l8-6v24l-8 6z"></path>
</symbol>
<symbol id="icon-map2" viewBox="0 0 32 32">
<path d="M21 6l-10-4-11 4v24l11-4 10 4 11-4v-24l-11 4zM12 4.554l8 3.2v19.692l-8-3.2v-19.692zM2 7.401l8-2.909v19.744l-8 2.909v-19.744zM30 24.599l-8 2.909v-19.744l8-2.909v19.744z"></path>
</symbol>
<symbol id="icon-display" viewBox="0 0 32 32">
<path d="M0 2v20h32v-20h-32zM30 20h-28v-16h28v16zM21 24h-10l-1 4-2 2h16l-2-2z"></path>
</symbol>
<symbol id="icon-laptop1" viewBox="0 0 32 32">
<path d="M28 22v-16c0-1.1-0.9-2-2-2h-20c-1.1 0-2 0.9-2 2v16h-4v6h32v-6h-4zM20 26h-8v-2h8v2zM26 22h-20v-15.996c0.001-0.001 0.002-0.003 0.004-0.004h19.993c0.001 0.001 0.003 0.002 0.004 0.004v15.996z"></path>
</symbol>
<symbol id="icon-mobile" viewBox="0 0 32 32">
<path d="M23 0h-14c-1.65 0-3 1.35-3 3v26c0 1.65 1.35 3 3 3h14c1.65 0 3-1.35 3-3v-26c0-1.65-1.35-3-3-3zM12 1.5h8v1h-8v-1zM16 30c-1.105 0-2-0.895-2-2s0.895-2 2-2 2 0.895 2 2-0.895 2-2 2zM24 24h-16v-20h16v20z"></path>
</symbol>
<symbol id="icon-mobile2" viewBox="0 0 32 32">
<path d="M24 0h-18c-1.1 0-2 0.9-2 2v28c0 1.1 0.9 2 2 2h18c1.1 0 2-0.9 2-2v-28c0-1.1-0.9-2-2-2zM15 30.556c-0.859 0-1.556-0.697-1.556-1.556s0.697-1.556 1.556-1.556 1.556 0.697 1.556 1.556-0.697 1.556-1.556 1.556zM24 26h-18v-22h18v22z"></path>
</symbol>
<symbol id="icon-key" viewBox="0 0 32 32">
<path d="M22 0c-5.523 0-10 4.477-10 10 0 0.626 0.058 1.238 0.168 1.832l-12.168 12.168v6c0 1.105 0.895 2 2 2h2v-2h4v-4h4v-4h4l2.595-2.595c1.063 0.385 2.209 0.595 3.405 0.595 5.523 0 10-4.477 10-10s-4.477-10-10-10zM24.996 10.004c-1.657 0-3-1.343-3-3s1.343-3 3-3 3 1.343 3 3-1.343 3-3 3z"></path>
</symbol>
<symbol id="icon-key2" viewBox="0 0 32 32">
<path d="M31.317 9.82l-3.16-3.159c-0.775-0.775-2.043-2.043-2.818-2.818l-3.16-3.159c-0.775-0.775-2.155-0.911-3.067-0.304l-8.639 5.759c-0.912 0.608-1.257 1.907-0.767 2.887l2.203 4.405c0.067 0.135 0.145 0.278 0.231 0.427l-11.142 11.142-1 7h6v-2h4v-4h4v-4h4v-2.225c0.2 0.119 0.392 0.226 0.569 0.314l4.405 2.203c0.98 0.49 2.279 0.145 2.887-0.767l5.759-8.639c0.608-0.912 0.471-2.292-0.304-3.066zM4.707 26.707l-1.414-1.414 9.737-9.737 1.414 1.414-9.737 9.737zM28.657 13.243l-1.414 1.414c-0.389 0.389-1.025 0.389-1.414 0l-8.485-8.485c-0.389-0.389-0.389-1.025 0-1.414l1.414-1.414c0.389-0.389 1.025-0.389 1.414 0l8.485 8.485c0.389 0.389 0.389 1.025 0 1.414z"></path>
</symbol>
<symbol id="icon-trophy" viewBox="0 0 32 32">
<path d="M26 6v-4h-20v4h-6v4c0 3.314 2.686 6 6 6 0.627 0 1.232-0.096 1.801-0.275 1.443 2.063 3.644 3.556 6.199 4.075v6.2h-2c-2.209 0-4 1.791-4 4h16c0-2.209-1.791-4-4-4h-2v-6.2c2.555-0.519 4.756-2.012 6.199-4.075 0.568 0.179 1.173 0.275 1.801 0.275 3.314 0 6-2.686 6-6v-4h-6zM6 13.625c-1.999 0-3.625-1.626-3.625-3.625v-2h3.625v2c0 1.256 0.232 2.457 0.655 3.565-0.213 0.039-0.431 0.060-0.655 0.060zM29.625 10c0 1.999-1.626 3.625-3.625 3.625-0.224 0-0.442-0.021-0.655-0.060 0.423-1.107 0.655-2.309 0.655-3.565v-2h3.625v2z"></path>
</symbol>
<symbol id="icon-glass" viewBox="0 0 32 32">
<path d="M24.306 0.527c-0.174-0.324-0.513-0.527-0.881-0.527h-14.85c-0.368 0-0.707 0.202-0.881 0.527-1.108 2.063-1.694 4.474-1.694 6.973 0 3.294 1.012 6.401 2.849 8.748 1.42 1.814 3.203 3.017 5.151 3.505v10.247h-3c-0.552 0-1 0.448-1 1s0.448 1 1 1h10c0.552 0 1-0.448 1-1s-0.448-1-1-1h-3v-10.247c1.949-0.488 3.732-1.691 5.151-3.505 1.837-2.347 2.849-5.454 2.849-8.748 0-2.499-0.586-4.91-1.694-6.973zM9.191 2h13.619c0.78 1.653 1.191 3.542 1.191 5.5 0 0.168-0.003 0.334-0.009 0.5h-15.981c-0.006-0.166-0.009-0.332-0.009-0.5-0-1.958 0.41-3.847 1.191-5.5z"></path>
</symbol>
<symbol id="icon-glass2" viewBox="0 0 32 32">
<path d="M27.786 5.618c0.236-0.301 0.28-0.711 0.113-1.055s-0.517-0.563-0.899-0.563h-22c-0.383 0-0.732 0.219-0.899 0.563s-0.123 0.754 0.113 1.055l9.786 12.455v11.927h-3c-0.552 0-1 0.448-1 1s0.448 1 1 1h10c0.552 0 1-0.448 1-1s-0.448-1-1-1h-3v-11.927l9.786-12.455zM24.943 6l-3.143 4h-11.599l-3.143-4h17.885z"></path>
</symbol>
<symbol id="icon-mug" viewBox="0 0 32 32">
<path d="M30 10h-6v-3c0-2.761-5.373-5-12-5s-12 2.239-12 5v20c0 2.761 5.373 5 12 5s12-2.239 12-5v-3h6c1.105 0 2-0.895 2-2v-10c0-1.105-0.895-2-2-2zM5.502 8.075c-1.156-0.381-1.857-0.789-2.232-1.075 0.375-0.286 1.075-0.694 2.232-1.075 1.811-0.597 4.118-0.925 6.498-0.925s4.688 0.329 6.498 0.925c1.156 0.381 1.857 0.789 2.232 1.075-0.375 0.286-1.076 0.694-2.232 1.075-1.811 0.597-4.118 0.925-6.498 0.925s-4.688-0.329-6.498-0.925zM28 20h-4v-6h4v6z"></path>
</symbol>
<symbol id="icon-spoon-knife" viewBox="0 0 32 32">
<path d="M7 0c-3.314 0-6 3.134-6 7 0 3.31 1.969 6.083 4.616 6.812l-0.993 16.191c-0.067 1.098 0.778 1.996 1.878 1.996h1c1.1 0 1.945-0.898 1.878-1.996l-0.993-16.191c2.646-0.729 4.616-3.502 4.616-6.812 0-3.866-2.686-7-6-7zM27.167 0l-1.667 10h-1.25l-0.833-10h-0.833l-0.833 10h-1.25l-1.667-10h-0.833v13c0 0.552 0.448 1 1 1h2.604l-0.982 16.004c-0.067 1.098 0.778 1.996 1.878 1.996h1c1.1 0 1.945-0.898 1.878-1.996l-0.982-16.004h2.604c0.552 0 1-0.448 1-1v-13h-0.833z"></path>
</symbol>
<symbol id="icon-fire" viewBox="0 0 32 32">
<path d="M10.031 32c-2.133-4.438-0.997-6.981 0.642-9.376 1.795-2.624 2.258-5.221 2.258-5.221s1.411 1.834 0.847 4.703c2.493-2.775 2.963-7.196 2.587-8.889 5.635 3.938 8.043 12.464 4.798 18.783 17.262-9.767 4.294-24.38 2.036-26.027 0.753 1.646 0.895 4.433-0.625 5.785-2.573-9.759-8.937-11.759-8.937-11.759 0.753 5.033-2.728 10.536-6.084 14.648-0.118-2.007-0.243-3.392-1.298-5.312-0.237 3.646-3.023 6.617-3.777 10.27-1.022 4.946 0.765 8.568 7.555 12.394z"></path>
</symbol>
<symbol id="icon-power-cord" viewBox="0 0 32 32">
<path d="M32 8.828l-2.828-2.828-5.586 5.586-3.172-3.172 5.586-5.586-2.828-2.828-5.586 5.586-3.586-3.586-2.707 2.707 16 16 2.707-2.707-3.586-3.586 5.586-5.586z"></path>
<path d="M24.814 21.056l-13.87-13.87c-2.994 3.591-6.391 9.139-4.044 13.913l-4.133 4.133c-0.972 0.972-0.972 2.563 0 3.535l0.464 0.464c0.972 0.972 2.563 0.972 3.536 0l4.133-4.133c4.774 2.348 10.322-1.049 13.913-4.043z"></path>
</symbol>
<symbol id="icon-earth" viewBox="0 0 32 32">
<path d="M16 0c-8.837 0-16 7.163-16 16s7.163 16 16 16 16-7.163 16-16-7.163-16-16-16zM16 30c-1.967 0-3.84-0.407-5.538-1.139l7.286-8.197c0.163-0.183 0.253-0.419 0.253-0.664v-3c0-0.552-0.448-1-1-1-3.531 0-7.256-3.671-7.293-3.707-0.188-0.188-0.442-0.293-0.707-0.293h-4c-0.552 0-1 0.448-1 1v6c0 0.379 0.214 0.725 0.553 0.894l3.447 1.724v5.871c-3.627-2.53-6-6.732-6-11.489 0-2.147 0.484-4.181 1.348-6h3.652c0.265 0 0.52-0.105 0.707-0.293l4-4c0.188-0.188 0.293-0.442 0.293-0.707v-2.419c1.268-0.377 2.61-0.581 4-0.581 2.2 0 4.281 0.508 6.134 1.412-0.13 0.109-0.256 0.224-0.376 0.345-1.133 1.133-1.757 2.64-1.757 4.243s0.624 3.109 1.757 4.243c1.139 1.139 2.663 1.758 4.239 1.758 0.099 0 0.198-0.002 0.297-0.007 0.432 1.619 1.211 5.833-0.263 11.635-0.014 0.055-0.022 0.109-0.026 0.163-2.541 2.596-6.084 4.208-10.004 4.208z"></path>
</symbol>
<symbol id="icon-star-empty" viewBox="0 0 32 32">
<path d="M32 12.408l-11.056-1.607-4.944-10.018-4.944 10.018-11.056 1.607 8 7.798-1.889 11.011 9.889-5.199 9.889 5.199-1.889-11.011 8-7.798zM16 23.547l-6.983 3.671 1.334-7.776-5.65-5.507 7.808-1.134 3.492-7.075 3.492 7.075 7.807 1.134-5.65 5.507 1.334 7.776-6.983-3.671z"></path>
</symbol>
<symbol id="icon-star-half" viewBox="0 0 32 32">
<path d="M32 12.408l-11.056-1.607-4.944-10.018-4.944 10.018-11.056 1.607 8 7.798-1.889 11.011 9.889-5.199 9.889 5.199-1.889-11.011 8-7.798zM16 23.547l-0.029 0.015 0.029-17.837 3.492 7.075 7.807 1.134-5.65 5.507 1.334 7.776-6.983-3.671z"></path>
</symbol>
<symbol id="icon-star-full" viewBox="0 0 32 32">
<path d="M32 12.408l-11.056-1.607-4.944-10.018-4.944 10.018-11.056 1.607 8 7.798-1.889 11.011 9.889-5.199 9.889 5.199-1.889-11.011 8-7.798z"></path>
</symbol>
<symbol id="icon-heart" viewBox="0 0 32 32">
<path d="M23.6 2c-3.363 0-6.258 2.736-7.599 5.594-1.342-2.858-4.237-5.594-7.601-5.594-4.637 0-8.4 3.764-8.4 8.401 0 9.433 9.516 11.906 16.001 21.232 6.13-9.268 15.999-12.1 15.999-21.232 0-4.637-3.763-8.401-8.4-8.401z"></path>
</symbol>
<symbol id="icon-enter" viewBox="0 0 32 32">
<path d="M12 16h-10v-4h10v-4l6 6-6 6zM32 0v26l-12 6v-6h-12v-8h2v6h10v-18l8-4h-18v8h-2v-10z"></path>
</symbol>
<symbol id="icon-facebook" viewBox="0 0 32 32">
<path d="M19 6h5v-6h-5c-3.86 0-7 3.14-7 7v3h-4v6h4v16h6v-16h5l1-6h-6v-3c0-0.542 0.458-1 1-1z"></path>
</symbol>
<symbol id="icon-facebook2" viewBox="0 0 32 32">
<path d="M29 0h-26c-1.65 0-3 1.35-3 3v26c0 1.65 1.35 3 3 3h13v-14h-4v-4h4v-2c0-3.306 2.694-6 6-6h4v4h-4c-1.1 0-2 0.9-2 2v2h6l-1 4h-5v14h9c1.65 0 3-1.35 3-3v-26c0-1.65-1.35-3-3-3z"></path>
</symbol>
<symbol id="icon-spotify" viewBox="0 0 32 32">
<path d="M16 0c-8.8 0-16 7.2-16 16s7.2 16 16 16 16-7.2 16-16-7.119-16-16-16zM23.363 23.119c-0.319 0.481-0.881 0.637-1.363 0.319-3.762-2.319-8.481-2.8-14.081-1.519-0.563 0.163-1.037-0.238-1.2-0.719-0.162-0.563 0.237-1.038 0.719-1.2 6.081-1.363 11.363-0.8 15.519 1.762 0.563 0.238 0.644 0.875 0.406 1.356zM25.281 18.719c-0.4 0.563-1.119 0.8-1.681 0.4-4.319-2.637-10.881-3.438-15.919-1.837-0.638 0.163-1.362-0.163-1.519-0.8-0.162-0.637 0.162-1.363 0.8-1.519 5.838-1.762 13.037-0.881 18 2.163 0.475 0.238 0.719 1.038 0.319 1.594zM25.438 14.238c-5.119-3.037-13.681-3.363-18.563-1.838-0.8 0.238-1.6-0.238-1.838-0.963-0.237-0.8 0.237-1.6 0.963-1.838 5.681-1.681 15.038-1.363 20.962 2.162 0.719 0.4 0.962 1.363 0.563 2.081-0.406 0.556-1.363 0.794-2.087 0.394z"></path>
</symbol>
<symbol id="icon-twitter" viewBox="0 0 32 32">
<path d="M32 7.075c-1.175 0.525-2.444 0.875-3.769 1.031 1.356-0.813 2.394-2.1 2.887-3.631-1.269 0.75-2.675 1.3-4.169 1.594-1.2-1.275-2.906-2.069-4.794-2.069-3.625 0-6.563 2.938-6.563 6.563 0 0.512 0.056 1.012 0.169 1.494-5.456-0.275-10.294-2.888-13.531-6.862-0.563 0.969-0.887 2.1-0.887 3.3 0 2.275 1.156 4.287 2.919 5.463-1.075-0.031-2.087-0.331-2.975-0.819 0 0.025 0 0.056 0 0.081 0 3.181 2.263 5.838 5.269 6.437-0.55 0.15-1.131 0.231-1.731 0.231-0.425 0-0.831-0.044-1.237-0.119 0.838 2.606 3.263 4.506 6.131 4.563-2.25 1.762-5.075 2.813-8.156 2.813-0.531 0-1.050-0.031-1.569-0.094 2.913 1.869 6.362 2.95 10.069 2.95 12.075 0 18.681-10.006 18.681-18.681 0-0.287-0.006-0.569-0.019-0.85 1.281-0.919 2.394-2.075 3.275-3.394z"></path>
</symbol>
<symbol id="icon-rss1" viewBox="0 0 32 32">
<path d="M4.259 23.467c-2.35 0-4.259 1.917-4.259 4.252 0 2.349 1.909 4.244 4.259 4.244 2.358 0 4.265-1.895 4.265-4.244-0-2.336-1.907-4.252-4.265-4.252zM0.005 10.873v6.133c3.993 0 7.749 1.562 10.577 4.391 2.825 2.822 4.384 6.595 4.384 10.603h6.16c-0-11.651-9.478-21.127-21.121-21.127zM0.012 0v6.136c14.243 0 25.836 11.604 25.836 25.864h6.152c0-17.64-14.352-32-31.988-32z"></path>
</symbol>
<symbol id="icon-youtube2" viewBox="0 0 80 32">
<path d="M10.75 5.294c0.007-0.027 0.011-0.046 0.012-0.056l0.033-0.236-1.48-0.008c-1.337-0.008-1.746 0-1.783 0.034-0.018 0.016-0.479 1.77-1.302 4.946-0.392 1.515-0.723 2.725-0.734 2.689s-0.481-1.766-1.044-3.843c-0.563-2.078-1.034-3.789-1.048-3.803-0.019-0.019-1.812-0.028-3.263-0.016-0.21 0.002-0.327-0.41 1.876 6.598 0.305 0.97 0.762 2.344 1.015 3.052 0.292 0.817 0.5 1.448 0.642 1.974 0.251 1.002 0.26 1.63 0.205 2.363-0.063 0.847-0.073 6.826-0.011 6.926 0.047 0.077 2.851 0.112 3.116 0.040 0.042-0.012 0.071-0.053 0.090-0.279 0.066-0.194 0.071-0.968 0.071-4.18v-4.103l0.179-0.566c0.117-0.37 0.413-1.344 0.656-2.163s0.538-1.801 0.654-2.18c1.057-3.447 2.067-6.838 2.094-7.032l0.022-0.158z"></path>
<path d="M26.441 10.27l-0.001 0.214-0.033 0-0.019 5.906-0.018 5.726-0.458 0.467c-0.513 0.522-0.925 0.722-1.297 0.629-0.405-0.102-0.395 0.056-0.429-6.712l-0.031-6.23h-2.947v0.214h-0.034v6.759c0 7.242-0 7.237 0.367 7.965 0.293 0.579 0.719 0.861 1.45 0.958h0c0.962 0.128 2-0.308 2.962-1.244l0.418-0.407v0.701c0 0.606 0.017 0.706 0.127 0.737 0.18 0.050 2.412 0.053 2.653 0.004l0.2-0.041v-0.207l0.034-0.007v-15.472l-2.944 0.039z"></path>
<path d="M18.965 13.323c-0.279-1.198-0.802-2.004-1.664-2.561-1.353-0.875-2.897-0.967-4.331-0.259-1.045 0.516-1.717 1.372-2.065 2.628-0.041 0.15-0.072 0.275-0.095 0.463-0.088 0.443-0.099 1.105-0.122 4.186-0.035 4.748 0.019 5.313 0.614 6.391 0.583 1.058 1.794 1.833 3.112 1.993 0.397 0.048 1.201-0.027 1.663-0.155 1.051-0.291 2.058-1.122 2.504-2.065 0.192-0.407 0.309-0.691 0.379-1.208 0.13-0.707 0.14-1.849 0.14-4.762-0-3.715-0.012-4.121-0.136-4.651zM15.604 23c-0.247 0.188-0.679 0.27-1.031 0.195-0.271-0.058-0.636-0.482-0.748-0.869-0.14-0.482-0.151-7.187-0.030-8.502 0.199-0.658 0.756-1.002 1.364-0.838 0.474 0.128 0.716 0.424 0.854 1.046 0.103 0.461 0.115 1.035 0.093 4.414-0.014 2.241-0.022 3.336-0.096 3.924-0.074 0.371-0.197 0.47-0.407 0.63z"></path>
<path d="M71.887 16.692h1.424l-0.023-1.29c-0.022-1.183-0.039-1.319-0.198-1.64-0.249-0.507-0.617-0.731-1.201-0.731-0.701 0-1.146 0.339-1.356 1.036-0.089 0.296-0.183 2.334-0.116 2.51 0.038 0.098 0.241 0.116 1.469 0.116z"></path>
<path d="M62.369 13.757c-0.19-0.383-0.543-0.571-0.954-0.556-0.319 0.011-0.674 0.146-1.015 0.407l-0.254 0.193v9.269l0.254 0.193c0.576 0.439 1.209 0.532 1.644 0.241 0.172-0.115 0.285-0.274 0.372-0.527 0.114-0.329 0.124-0.75 0.109-4.649-0.015-4.064-0.024-4.303-0.157-4.57z"></path>
<path d="M80.027 9.582c-0.284-3.401-0.509-4.505-1.211-5.923-0.929-1.878-2.272-2.868-4.184-3.086-1.478-0.168-7.041-0.405-12.189-0.52-8.912-0.198-23.564 0.183-25.436 0.662-0.865 0.221-1.513 0.597-2.188 1.269-1.183 1.177-1.887 2.865-2.17 5.2-0.647 5.331-0.66 11.773-0.037 17.297 0.268 2.376 0.82 3.92 1.857 5.192 0.647 0.794 1.761 1.469 2.758 1.67 0.7 0.141 4.201 0.337 9.3 0.521 0.76 0.027 2.771 0.074 4.47 0.105 3.541 0.063 10.051 0.026 13.772-0.079 2.504-0.070 7.069-0.255 7.922-0.321 0.24-0.019 0.796-0.054 1.236-0.079 1.477-0.083 2.417-0.393 3.3-1.086 1.142-0.897 2.027-2.556 2.4-4.501 0.354-1.84 0.59-5.118 0.638-8.839 0.040-3.109-0.013-4.787-0.238-7.482zM44.54 8.35l-1.656 0.020-0.073 17.661-1.435 0.018c-1.11 0.015-1.447-0.001-1.474-0.073-0.019-0.051-0.042-4.032-0.052-8.849l-0.018-8.758-3.234-0.041v-2.76l9.557 0.039 0.041 2.721-1.656 0.020zM54.694 18.472v7.595h-2.616v-0.799c0-0.601-0.023-0.799-0.093-0.799-0.051 0-0.288 0.198-0.527 0.441-0.517 0.526-1.13 0.949-1.653 1.145-1.083 0.405-2.112 0.169-2.551-0.586-0.401-0.691-0.409-0.845-0.409-8.010v-6.58h2.614l0.020 6.196c0.019 6.088 0.022 6.2 0.168 6.448 0.193 0.329 0.488 0.417 0.956 0.288 0.276-0.076 0.464-0.21 0.911-0.654l0.563-0.561v-11.717h2.616v7.595zM64.899 24.982c-0.23 0.513-0.744 1.016-1.165 1.14-1.099 0.324-1.98 0.060-2.998-0.897-0.316-0.297-0.61-0.538-0.654-0.538-0.053 0-0.082 0.233-0.082 0.69v0.69h-2.616v-20.495h2.616v3.343c0 1.839 0.025 3.343 0.054 3.343s0.306-0.244 0.613-0.541c0.707-0.683 1.298-0.981 2.049-1.038 1.338-0.101 2.135 0.587 2.501 2.16 0.114 0.491 0.125 1.051 0.125 5.596-0 5.537-0.001 5.56-0.443 6.546zM75.968 21.943c-0.023 0.57-0.092 1.223-0.154 1.454-0.364 1.349-1.332 2.304-2.732 2.696-1.885 0.527-3.96-0.337-4.788-1.994-0.465-0.93-0.481-1.116-0.481-5.662 0-3.707 0.013-4.162 0.132-4.667 0.336-1.431 1.168-2.357 2.578-2.871 0.408-0.149 0.835-0.225 1.261-0.234 1.521-0.031 3.031 0.787 3.663 2.119 0.427 0.899 0.48 1.283 0.522 3.816l0.039 2.271-5.578 0.039-0.020 1.526c-0.029 2.153 0.116 2.815 0.697 3.207 0.489 0.329 1.24 0.305 1.649-0.055 0.383-0.337 0.491-0.698 0.529-1.753l0.034-0.927h2.694l-0.043 1.036z"></path>
</symbol>
<symbol id="icon-appleinc" viewBox="0 0 32 32">
<path d="M24.734 17.003c-0.040-4.053 3.305-5.996 3.454-6.093-1.88-2.751-4.808-3.127-5.851-3.171-2.492-0.252-4.862 1.467-6.127 1.467-1.261 0-3.213-1.43-5.28-1.392-2.716 0.040-5.221 1.579-6.619 4.012-2.822 4.897-0.723 12.151 2.028 16.123 1.344 1.944 2.947 4.127 5.051 4.049 2.026-0.081 2.793-1.311 5.242-1.311s3.138 1.311 5.283 1.271c2.18-0.041 3.562-1.981 4.897-3.931 1.543-2.255 2.179-4.439 2.216-4.551-0.048-0.022-4.252-1.632-4.294-6.473zM20.705 5.11c1.117-1.355 1.871-3.235 1.665-5.11-1.609 0.066-3.559 1.072-4.713 2.423-1.036 1.199-1.942 3.113-1.699 4.951 1.796 0.14 3.629-0.913 4.747-2.264z"></path>
</symbol>
<symbol id="icon-paw" viewBox="0 0 26 28">
<path d="M12.187 7.375c0 1.75-0.906 3.828-2.922 3.828-2.531 0-4.062-3.187-4.062-5.375 0-1.75 0.906-3.828 2.922-3.828 2.547 0 4.062 3.187 4.062 5.375zM6.844 14.922c0 1.516-0.797 3.094-2.516 3.094-2.5 0-4.328-3.063-4.328-5.328 0-1.516 0.812-3.109 2.516-3.109 2.5 0 4.328 3.078 4.328 5.344zM13 14.5c3.828 0 9 5.516 9 9.203 0 1.984-1.625 2.297-3.219 2.297-2.094 0-3.781-1.406-5.781-1.406-2.094 0-3.875 1.391-6.141 1.391-1.516 0-2.859-0.516-2.859-2.281 0-3.703 5.172-9.203 9-9.203zM16.734 11.203c-2.016 0-2.922-2.078-2.922-3.828 0-2.188 1.516-5.375 4.062-5.375 2.016 0 2.922 2.078 2.922 3.828 0 2.188-1.531 5.375-4.062 5.375zM23.484 9.578c1.703 0 2.516 1.594 2.516 3.109 0 2.266-1.828 5.328-4.328 5.328-1.719 0-2.516-1.578-2.516-3.094 0-2.266 1.828-5.344 4.328-5.344z"></path>
</symbol>
<symbol id="icon-cc-mastercard" viewBox="0 0 36 28">
<path d="M17.484 5.328c-1.297-0.859-2.828-1.328-4.391-1.328-4.391 0-7.953 3.563-7.953 7.938 0 4.391 3.563 7.953 7.953 7.953 1.563 0 3.094-0.469 4.391-1.328-4.188-3.406-4.156-9.828 0-13.234zM18 5.703c-4.031 3.172-4.047 9.328 0 12.484 4.047-3.156 4.031-9.312 0-12.484zM18.516 5.328c4.141 3.406 4.203 9.844 0 13.234 1.297 0.859 2.844 1.328 4.391 1.328 4.391 0 7.953-3.563 7.953-7.953 0-4.375-3.563-7.938-7.953-7.938-1.563 0-3.094 0.469-4.391 1.328zM30.094 16.609h0.109v-0.047h-0.266v0.047h0.109v0.266h0.047v-0.266zM30.547 16.875h0.063v-0.313h-0.078l-0.094 0.203-0.094-0.203h-0.078v0.313h0.047v-0.234l0.094 0.203h0.063l0.078-0.203v0.234zM30.422 23.75v0.031h-0.078v-0.047h0.078v0.016zM30.422 23.891h0.047l-0.063-0.078c0.031 0 0.031-0.016 0.047-0.016 0.016-0.016 0.016-0.031 0.016-0.047s0-0.031-0.016-0.047c-0.016 0-0.031-0.016-0.063-0.016h-0.094v0.203h0.047v-0.078h0.016zM10.703 22.828c0-0.375 0.234-0.672 0.641-0.672 0.375 0 0.625 0.297 0.625 0.672 0 0.391-0.25 0.672-0.625 0.672-0.406 0-0.641-0.297-0.641-0.672zM18.094 22.141c0.297 0 0.5 0.172 0.547 0.5h-1.094c0.047-0.297 0.234-0.5 0.547-0.5zM23.656 22.828c0-0.375 0.234-0.672 0.625-0.672s0.641 0.297 0.641 0.672c0 0.391-0.25 0.672-0.641 0.672s-0.625-0.297-0.625-0.672zM27.906 22.828c0-0.375 0.25-0.672 0.641-0.672 0.375 0 0.641 0.297 0.641 0.672 0 0.391-0.266 0.672-0.641 0.672-0.391 0-0.641-0.297-0.641-0.672zM30.375 23.953c-0.016 0-0.031 0-0.063-0.016-0.016 0-0.031-0.016-0.047-0.031s-0.031-0.031-0.031-0.047-0.016-0.047-0.016-0.063 0-0.047 0.016-0.063c0-0.031 0.016-0.047 0.031-0.063s0.031-0.016 0.047-0.031 0.047-0.016 0.063-0.016 0.047 0 0.063 0.016 0.047 0.016 0.063 0.031 0.016 0.031 0.031 0.063c0 0.016 0.016 0.031 0.016 0.063 0 0.016-0.016 0.031-0.016 0.063-0.016 0.016-0.016 0.031-0.031 0.047s-0.031 0.031-0.063 0.031c-0.016 0.016-0.031 0.016-0.063 0.016zM9.359 23.891h0.469v-1.328c0-0.5-0.328-0.828-0.844-0.844-0.266 0-0.547 0.078-0.734 0.375-0.141-0.234-0.375-0.375-0.703-0.375-0.219 0-0.438 0.078-0.609 0.313v-0.25h-0.469v2.109h0.469v-1.172c0-0.375 0.203-0.562 0.516-0.562s0.469 0.203 0.469 0.562v1.172h0.453v-1.172c0-0.375 0.219-0.562 0.516-0.562 0.313 0 0.469 0.203 0.469 0.562v1.172zM11.953 23.891h0.453v-2.109h-0.453v0.25c-0.156-0.187-0.375-0.313-0.672-0.313-0.594 0-1.047 0.469-1.047 1.109s0.453 1.109 1.047 1.109c0.297 0 0.516-0.109 0.672-0.313v0.266zM14.734 23.25c0-0.375-0.281-0.562-0.734-0.625l-0.219-0.031c-0.203-0.031-0.359-0.078-0.359-0.219s0.141-0.234 0.391-0.234c0.281 0 0.531 0.094 0.672 0.172l0.187-0.375c-0.219-0.141-0.516-0.219-0.859-0.219-0.531 0-0.875 0.266-0.875 0.688 0 0.344 0.25 0.547 0.734 0.609l0.203 0.031c0.266 0.047 0.375 0.109 0.375 0.219 0 0.172-0.172 0.266-0.484 0.266s-0.547-0.109-0.703-0.219l-0.203 0.359c0.25 0.172 0.562 0.266 0.906 0.266 0.609 0 0.969-0.281 0.969-0.688zM16.766 23.781l-0.125-0.391c-0.141 0.078-0.281 0.109-0.406 0.109-0.234 0-0.297-0.141-0.297-0.344v-0.953h0.75v-0.422h-0.75v-0.641h-0.469v0.641h-0.438v0.422h0.438v0.953c0 0.484 0.187 0.781 0.734 0.781 0.187 0 0.422-0.063 0.562-0.156zM18.109 21.719c-0.609 0-1.047 0.453-1.047 1.109 0 0.672 0.453 1.109 1.078 1.109 0.313 0 0.609-0.078 0.859-0.297l-0.219-0.344c-0.172 0.141-0.406 0.234-0.609 0.234-0.297 0-0.562-0.141-0.641-0.516h1.578v-0.187c0-0.656-0.406-1.109-1-1.109zM20.594 21.719c-0.266 0-0.438 0.125-0.547 0.313v-0.25h-0.469v2.109h0.469v-1.188c0-0.344 0.141-0.547 0.453-0.547 0.094 0 0.187 0.016 0.281 0.063l0.141-0.438c-0.109-0.047-0.234-0.063-0.328-0.063zM21.063 22.828c0 0.641 0.438 1.109 1.125 1.109 0.313 0 0.531-0.063 0.75-0.25l-0.219-0.375c-0.172 0.125-0.344 0.203-0.547 0.187-0.375 0-0.641-0.266-0.641-0.672s0.266-0.672 0.641-0.672c0.203 0 0.375 0.063 0.547 0.187l0.219-0.375c-0.219-0.172-0.438-0.25-0.75-0.25-0.688 0-1.125 0.469-1.125 1.109zM24.891 23.891h0.469v-2.109h-0.469v0.25c-0.141-0.187-0.359-0.313-0.656-0.313-0.594 0-1.062 0.469-1.062 1.109s0.469 1.109 1.062 1.109c0.297 0 0.516-0.109 0.656-0.313v0.266zM26.969 21.719c-0.266 0-0.438 0.125-0.547 0.313v-0.25h-0.453v2.109h0.453v-1.188c0-0.344 0.156-0.547 0.453-0.547 0.094 0 0.187 0.016 0.281 0.063l0.141-0.438c-0.094-0.047-0.234-0.063-0.328-0.063zM29.156 23.891h0.453v-2.969h-0.453v1.109c-0.141-0.187-0.359-0.313-0.672-0.313-0.578 0-1.047 0.469-1.047 1.109s0.469 1.109 1.047 1.109c0.313 0 0.531-0.109 0.672-0.313v0.266zM30.375 23.578c-0.016 0-0.047 0.016-0.078 0.016-0.031 0.016-0.047 0.031-0.063 0.047-0.031 0.016-0.047 0.047-0.047 0.063-0.016 0.031-0.016 0.063-0.016 0.094 0 0.016 0 0.047 0.016 0.078 0 0.016 0.016 0.047 0.047 0.063 0.016 0.016 0.031 0.031 0.063 0.047s0.063 0.016 0.078 0.016c0.031 0 0.063 0 0.094-0.016 0.016-0.016 0.047-0.031 0.063-0.047s0.031-0.047 0.047-0.063c0.016-0.031 0.016-0.063 0.016-0.078 0-0.031 0-0.063-0.016-0.094-0.016-0.016-0.031-0.047-0.047-0.063s-0.047-0.031-0.063-0.047c-0.031 0-0.063-0.016-0.094-0.016zM36 4v20c0 1.094-0.906 2-2 2h-32c-1.094 0-2-0.906-2-2v-20c0-1.094 0.906-2 2-2h32c1.094 0 2 0.906 2 2z"></path>
</symbol>
<symbol id="icon-americanexpress" viewBox="0 0 32 32">
<path fill="#2e77bc" style="fill: var(--color1, #2e77bc)" d="M21.353 19.171c0-0.427-0.18-0.661-0.459-0.829-0.28-0.16-0.619-0.18-1.080-0.18h-2.057v3.76h0.9v-1.369h0.96c0.32 0 0.52 0.032 0.637 0.167 0.16 0.173 0.139 0.507 0.139 0.733v0.467h0.88v-0.74c-0.003-0.333-0.023-0.501-0.144-0.688-0.080-0.107-0.24-0.24-0.44-0.312l0.027-0.011c0.24-0.096 0.64-0.396 0.637-0.997zM20.193 19.713l-0.037-0.003c-0.12 0.071-0.26 0.077-0.44 0.077h-1.080v-0.84h1.099c0.16 0 0.32 0 0.44 0.067 0.131 0.064 0.208 0.196 0.2 0.34 0 0.16-0.060 0.287-0.181 0.359zM27.063 21.116h-1.729v0.8h1.739c0.901 0 1.4-0.371 1.4-1.179 0-0.373-0.088-0.597-0.249-0.776-0.204-0.177-0.523-0.257-0.973-0.276l-0.501-0.020c-0.139 0-0.24 0-0.34-0.040-0.12-0.040-0.2-0.14-0.2-0.28 0-0.12 0.023-0.221 0.12-0.28 0.111-0.061 0.236-0.088 0.363-0.080h1.64v-0.803h-1.8c-0.939 0-1.277 0.583-1.277 1.12 0 1.2 1.035 1.14 1.876 1.16 0.139 0 0.24 0.020 0.3 0.080 0.061 0.040 0.109 0.141 0.109 0.24 0 0.103-0.047 0.2-0.107 0.24-0.080 0.071-0.2 0.093-0.369 0.093zM0 0v13.461l1.080-2.501h2.333l0.3 0.619v-0.619h2.724l0.6 1.36 0.583-1.351h8.669c0.393 0 0.747 0.076 1.008 0.315v-0.307h2.383v0.307c0.409-0.227 0.915-0.307 1.493-0.307h3.475l0.32 0.621v-0.621h2.557l0.339 0.62v-0.621h2.477v5.264h-2.515l-0.48-0.8v0.78h-3.137l-0.341-0.84h-0.777l-0.36 0.819h-1.617c-0.64 0-1.12-0.139-1.44-0.32v0.32h-3.853v-1.179c0-0.16-0.040-0.16-0.14-0.18h-0.14v1.381h-7.451v-0.64l-0.28 0.64h-1.556l-0.269-0.64v0.62h-3.004l-0.341-0.832h-0.772l-0.341 0.832h-1.525v15.799h31.715v-9.477c-0.36 0.18-0.817 0.24-1.297 0.24h-2.297v-0.34c-0.28 0.22-0.76 0.34-1.219 0.34h-7.288v-1.2c0-0.16-0.024-0.16-0.16-0.16h-0.1v1.363h-2.4v-1.421c-0.397 0.181-0.857 0.2-1.237 0.181h-0.285v1.22h-2.907l-0.72-0.823-0.76 0.8h-4.721v-5.24h4.813l0.691 0.803 0.739-0.8h3.216c0.373 0 0.987 0.040 1.256 0.3v-0.32h2.903c0.269 0 0.859 0.060 1.204 0.3v-0.32h4.353v0.32c0.217-0.219 0.677-0.32 1.071-0.32h2.52v0.32c0.259-0.2 0.619-0.32 1.12-0.32h1.568v-17.445zM28.208 19.94c0.005 0.007 0.008 0.016 0.013 0.021 0.013 0.013 0.032 0.013 0.043 0.027zM31.771 17.443h0.087v0.74h-0.087zM31.82 20.040v-0.007c-0.040-0.033-0.061-0.064-0.1-0.093-0.2-0.204-0.52-0.287-1.019-0.3l-0.48-0.016c-0.16 0-0.259-0.009-0.36-0.040-0.12-0.040-0.2-0.14-0.2-0.28 0-0.12 0.040-0.213 0.12-0.272 0.101-0.060 0.2-0.067 0.36-0.067h1.631v-0.784h-1.711c-0.92 0-1.28 0.583-1.28 1.12 0 1.2 1.040 1.14 1.88 1.16 0.139 0 0.24 0.020 0.299 0.080 0.061 0.040 0.101 0.141 0.101 0.24 0 0.093-0.045 0.184-0.12 0.24-0.060 0.075-0.181 0.093-0.36 0.093h-1.717v0.807h1.716c0.56 0 0.979-0.157 1.2-0.48h0.040c0.12-0.179 0.18-0.4 0.18-0.697 0-0.32-0.060-0.52-0.18-0.704zM24.796 18.944v-0.777h-2.98v3.777h2.98v-0.78h-2.093v-0.76h2.044v-0.779h-2.043v-0.68zM18.013 11.716h0.913v3.751h-0.912zM17.501 12.724l-0.009 0.008c0-0.419-0.173-0.667-0.453-0.832-0.289-0.167-0.627-0.18-1.080-0.18h-2.052v3.76h0.899v-1.379h0.96c0.32 0 0.52 0.040 0.649 0.16 0.163 0.181 0.143 0.504 0.143 0.731v0.472h0.903v-0.737c0-0.333-0.021-0.5-0.147-0.688-0.12-0.143-0.269-0.253-0.44-0.316 0.229-0.093 0.629-0.4 0.628-0.999zM16.361 13.252h-0.020c-0.12 0.072-0.26 0.075-0.44 0.075h-1.101v-0.831h1.1c0.16 0 0.32 0.005 0.44 0.067 0.12 0.053 0.2 0.171 0.2 0.333s-0.063 0.293-0.179 0.356zM21.227 12.497h0.843v-0.8h-0.859c-0.619 0-1.072 0.14-1.36 0.44-0.381 0.4-0.483 0.92-0.483 1.48 0 0.683 0.164 1.111 0.48 1.432 0.309 0.317 0.86 0.413 1.293 0.413h1.040l0.34-0.836h1.853l0.349 0.836h1.813v-2.813l1.696 2.813h1.267l0.003 0.003v-3.751h-0.912v2.617l-1.573-2.613h-1.36v3.481l-1.511-3.541h-1.339l-1.257 2.96h-0.4c-0.236 0-0.483-0.040-0.624-0.179-0.167-0.2-0.248-0.48-0.248-0.883 0-0.38 0.107-0.68 0.259-0.84 0.177-0.18 0.363-0.22 0.689-0.22zM23.451 12.353l0.619 1.491v0.003h-1.24zM3.173 14.627l0.339 0.837h1.821v-2.94l1.296 2.94h0.779l1.297-2.936 0.020 2.936h0.92v-3.747h-1.488l-1.076 2.539-1.168-2.54h-1.456v3.551l-1.517-3.551h-1.329l-1.597 3.747h0.96l0.347-0.835zM2.256 12.353l0.613 1.491-0.004 0.003h-1.22zM15.808 18.16h-2.856l-1.133 1.231-1.1-1.229h-3.591v3.76h3.539l1.14-1.243 1.099 1.24h1.736v-1.253h1.117c0.8 0 1.56-0.219 1.56-1.26l-0.008-0.004c0-1.040-0.797-1.24-1.503-1.241zM10.227 21.137l-0.019-0.003h-2.181v-0.743h1.96v-0.765h-1.96v-0.68h2.24l0.977 1.093zM13.749 21.577l-1.373-1.529 1.373-1.477zM15.82 19.9h-1.18v-0.956h1.18c0.32 0 0.56 0.131 0.56 0.459 0 0.324-0.2 0.496-0.56 0.497zM13.289 12.497v-0.781h-2.983v3.751h2.983v-0.773h-2.089v-0.752h2.036v-0.768h-2.036v-0.676z"></path>
</symbol>
<symbol id="icon-applepay" viewBox="0 0 32 32">
<path d="M5.851 11.045c-0.376 0.449-0.976 0.803-1.576 0.752-0.075-0.607 0.219-1.251 0.563-1.649 0.376-0.461 1.032-0.788 1.563-0.815 0.063 0.632-0.181 1.251-0.549 1.712zM6.393 11.917c-0.868-0.051-1.613 0.5-2.024 0.5-0.42 0-1.051-0.475-1.739-0.461-0.893 0.013-1.724 0.524-2.18 1.34-0.939 1.629-0.244 4.044 0.661 5.371 0.444 0.657 0.976 1.377 1.676 1.352 0.661-0.025 0.924-0.436 1.724-0.436 0.807 0 1.037 0.436 1.739 0.424 0.724-0.013 1.18-0.657 1.624-1.315 0.507-0.747 0.713-1.472 0.725-1.511-0.013-0.013-1.4-0.549-1.413-2.167-0.012-1.353 1.093-1.997 1.144-2.035-0.624-0.936-1.6-1.037-1.937-1.063zM11.413 10.085v9.852h1.513v-3.368h2.093c1.912 0 3.256-1.328 3.256-3.248 0-1.921-1.319-3.236-3.205-3.236zM12.927 11.375h1.744c1.312 0 2.061 0.707 2.061 1.952s-0.749 1.96-2.068 1.96h-1.739zM21.039 20.012c0.951 0 1.832-0.485 2.232-1.257h0.031v1.183h1.4v-4.904c0-1.421-1.125-2.339-2.856-2.339-1.607 0-2.793 0.929-2.837 2.205h1.363c0.112-0.607 0.668-1.004 1.431-1.004 0.925 0 1.444 0.436 1.444 1.239v0.543l-1.888 0.115c-1.756 0.107-2.707 0.833-2.707 2.097 0 1.276 0.981 2.123 2.388 2.123zM21.445 18.844c-0.807 0-1.32-0.392-1.32-0.992 0-0.62 0.495-0.98 1.439-1.037l1.68-0.107v0.556c0 0.923-0.773 1.58-1.799 1.58zM26.571 22.617c1.475 0 2.168-0.569 2.773-2.295l2.656-7.533h-1.537l-1.781 5.82h-0.031l-1.781-5.82h-1.581l2.561 7.173-0.137 0.436c-0.231 0.739-0.605 1.023-1.275 1.023-0.119 0-0.349-0.013-0.444-0.025v1.183c0.088 0.025 0.463 0.037 0.577 0.039z"></path>
</symbol>
<symbol id="icon-buymeacoffee" viewBox="0 0 32 32">
<path fill="#ff813f" style="fill: var(--color2, #ff813f)" d="M9.197 0l-1.621 3.732h-2.407v3.364h0.927l0.94 5.971h-1.473l1.947 10.973 1.251-0.013 1.256 7.973h11.891l0.083-0.533 1.173-7.44 1.184 0.013 1.947-10.975h-1.408l0.94-5.969h1.008v-3.363h-2.557l-1.623-3.733zM9.901 1.073h12.057l1.028 2.373h-14.117zM6.235 4.803h19.525v1.227h-19.525zM6.839 14.133h18.18l-1.568 8.827-7.532-0.080-7.515 0.080z"></path>
</symbol>
<symbol id="icon-coffeescript" viewBox="0 0 32 32">
<path d="M6.187 9.96c2.8 0.707 6.373 1.067 10.68 1.067 4.4 0 7.893-0.36 10.68-1.067 2.973-0.693 4.4-1.627 4.4-2.507 0-0.627-0.64-1.24-1.8-1.707 0.267 0.173 0.467 0.467 0.467 0.787 0 0.893-1.347 1.627-4.053 2.24-2.507 0.547-5.707 0.933-9.6 0.933-3.76 0-7.107-0.387-9.52-0.907-2.6-0.64-3.96-1.333-3.96-2.24 0-0.373 0.173-0.693 0.693-1.067-1.627 0.627-2.507 1.16-2.507 1.96 0.093 0.907 1.547 1.813 4.52 2.507zM12.44 7.080c3.027-0.267 3.907-2.213 7.453-2.533 1.747-0.133 2.853 0.213 2.973 0.827 0.107 0.573-0.76 0.96-1.813 1.040-1.453 0.147-2.053-0.373-2.173-0.867-1.080 0.12-1.253 0.573-1.2 0.893 0.12 0.613 1.427 1.227 3.667 1.013 2.533-0.2 3.387-1.2 3.173-2.2-0.267-1.307-2.213-2.4-5.707-2.067-4.48 0.4-4.453 2.48-7.507 2.733-1.253 0.12-1.947-0.173-2.067-0.667-0.080-0.493 0.533-0.733 1.253-0.787 0.667-0.067 1.48 0.053 1.867 0.267 0.28-0.147 0.373-0.293 0.347-0.467-0.133-0.467-1.053-0.667-2.213-0.587-2.267 0.2-2.267 1.213-2.187 1.667 0.227 1.16 1.973 1.933 4.133 1.733zM27.667 12.2c-2.8 0.653-6.373 1.080-10.68 1.080-4.4 0-7.987-0.453-10.773-1.067-2.507-0.64-3.84-1.347-4.307-2.080 0.24 1.64 0.653 3.227 1.187 4.733-0.64 0.4-1.213 0.893-1.733 1.56-0.852 1.032-1.368 2.367-1.368 3.823 0 0.109 0.003 0.217 0.009 0.325l-0.001-0.015c0.103 1.43 0.818 2.674 1.882 3.485l0.012 0.009c1.16 0.907 2.413 1.173 3.84 0.907 0.547-0.093 1.16-0.373 1.72-0.56-1.173 0-2.16-0.373-3.147-1.16-1.058-0.742-1.792-1.884-1.984-3.201l-0.003-0.026c-0.267-1.253 0-2.413 0.707-3.44 0.16-0.2 0.333-0.373 0.52-0.533 0.4 0.973 0.827 1.933 1.307 2.827 1.080 1.64 2.16 3.067 3.24 4.613 0.467 0.907 0.773 1.8 0.987 2.693 0.715 0.979 1.744 1.692 2.937 1.992l0.036 0.008c1.533 0.533 3.133 0.773 4.773 0.68h0.173c0.177 0.008 0.385 0.013 0.594 0.013 1.548 0 3.035-0.259 4.421-0.735l-0.096 0.029c1.179-0.352 2.166-1.049 2.87-1.973l0.010-0.014h0.093c0.173-0.893 0.467-1.787 0.893-2.693 1.067-1.56 2.16-2.973 3.227-4.613 1.39-2.52 2.432-5.45 2.963-8.554l0.023-0.166c-0.573 0.8-1.92 1.507-4.333 2.053z"></path>
</symbol>
<symbol id="icon-pandora" viewBox="0 0 32 32">
<path fill="#005483" style="fill: var(--color3, #005483)" d="M25.401 0h-18.803c-3.599 0-6.599 2.961-6.599 6.6v18.801c0 3.599 2.96 6.599 6.599 6.599h18.803c3.637 0 6.599-2.961 6.599-6.599v-18.801c0-3.6-2.961-6.6-6.599-6.6zM16.5 21.081h-1.639v3.719c0 0.481-0.401 0.861-0.861 0.861h-5.139v-19.32h8.739c4.241 0 7.523 2.2 7.523 7.2 0 4.74-3.64 7.539-8.601 7.539z"></path>
</symbol>
<symbol id="icon-spotify1" viewBox="0 0 32 32">
<path fill="#1ed760" style="fill: var(--color4, #1ed760)" d="M16 0c-8.8 0-16 7.2-16 16s7.2 16 16 16 16-7.2 16-16-7.12-16-16-16zM23.361 23.12c-0.32 0.479-0.88 0.64-1.361 0.32-3.76-2.32-8.48-2.801-14.081-1.521-0.557 0.163-1.039-0.239-1.199-0.719-0.16-0.561 0.24-1.040 0.72-1.2 6.080-1.361 11.36-0.8 15.52 1.76 0.56 0.24 0.639 0.879 0.401 1.36zM25.281 18.72c-0.401 0.56-1.121 0.8-1.683 0.4-4.319-2.64-10.879-3.44-15.919-1.84-0.639 0.16-1.36-0.16-1.52-0.8s0.16-1.361 0.8-1.521c5.84-1.759 13.040-0.877 18 2.161 0.481 0.241 0.72 1.040 0.321 1.6zM25.441 14.24c-5.121-3.040-13.681-3.36-18.561-1.839-0.8 0.239-1.6-0.241-1.84-0.961-0.24-0.801 0.24-1.6 0.96-1.841 5.68-1.68 15.040-1.36 20.961 2.161 0.719 0.4 0.959 1.36 0.559 2.080-0.399 0.561-1.36 0.799-2.079 0.4z"></path>
</symbol>
<symbol id="icon-tripadvisor" viewBox="0 0 32 32">
<path fill="#00af87" style="fill: var(--color5, #00af87)" d="M30.681 12.709c0.375-1.609 1.567-3.221 1.567-3.221h-5.349c-3.001-1.94-6.641-2.968-10.684-2.968-4.187 0-7.971 1.040-10.952 3.001h-5.015c0 0 1.18 1.581 1.56 3.181-0.976 1.343-1.556 2.963-1.556 4.743 0 4.421 3.596 8.011 8.016 8.011 2.521 0 4.761-1.18 6.241-3.005l1.7 2.555 1.721-2.581c0.76 0.981 1.76 1.781 2.94 2.32 1.94 0.88 4.123 0.981 6.123 0.24 4.141-1.539 6.261-6.161 4.741-10.301-0.279-0.741-0.64-1.401-1.080-1.98zM26.453 23.472c-1.6 0.593-3.34 0.527-4.893-0.191-1.099-0.511-2.004-1.309-2.651-2.303-0.268-0.399-0.5-0.831-0.671-1.295-0.195-0.527-0.293-1.071-0.345-1.62-0.099-1.109 0.060-2.231 0.54-3.271 0.72-1.552 2.001-2.735 3.601-3.328 3.32-1.219 7 0.481 8.221 3.788 1.221 3.308-0.48 6.993-3.78 8.217zM13.563 21.027c-1.151 1.695-3.096 2.817-5.297 2.817-3.528 0-6.401-2.875-6.401-6.396s2.875-6.403 6.401-6.403 6.397 2.881 6.397 6.403c0 0.219-0.040 0.419-0.064 0.639-0.108 1.081-0.455 2.101-1.036 2.961zM4.2 17.364c0 2.188 1.781 3.961 3.961 3.961s3.957-1.773 3.957-3.961c0-2.18-1.777-3.952-3.955-3.952-2.181 0-3.961 1.772-3.961 3.952zM20.264 17.364c0 2.188 1.772 3.961 3.957 3.961 2.181 0 3.953-1.773 3.953-3.961 0-2.18-1.772-3.952-3.953-3.952-2.18 0-3.961 1.772-3.961 3.952zM5.568 17.364c0-1.428 1.159-2.591 2.581-2.591 1.419 0 2.599 1.164 2.599 2.591 0 1.435-1.159 2.601-2.599 2.601-1.441 0-2.601-1.167-2.601-2.601zM21.612 17.364c0-1.428 1.159-2.591 2.599-2.591 1.421 0 2.583 1.164 2.583 2.591 0 1.435-1.16 2.601-2.603 2.601-1.439 0-2.599-1.167-2.599-2.601zM16.208 7.92c2.881 0 5.481 0.519 7.763 1.549-0.86 0.024-1.7 0.175-2.541 0.48-2.020 0.74-3.62 2.22-4.5 4.167-0.42 0.88-0.64 1.812-0.721 2.753-0.3-4.101-3.68-7.353-7.841-7.437 2.281-0.979 4.923-1.512 7.783-1.512z"></path>
</symbol>
<symbol id="icon-twitter1" viewBox="0 0 32 32">
<path fill="#1da1f2" style="fill: var(--color6, #1da1f2)" d="M31.939 6.092c-1.18 0.519-2.44 0.872-3.767 1.033 1.352-0.815 2.392-2.099 2.884-3.631-1.268 0.74-2.673 1.279-4.169 1.579-1.195-1.279-2.897-2.079-4.788-2.079-3.623 0-6.56 2.937-6.56 6.556 0 0.52 0.060 1.020 0.169 1.499-5.453-0.257-10.287-2.876-13.521-6.835-0.569 0.963-0.888 2.081-0.888 3.3 0 2.28 1.16 4.284 2.917 5.461-1.076-0.035-2.088-0.331-2.971-0.821v0.081c0 3.18 2.257 5.832 5.261 6.436-0.551 0.148-1.132 0.228-1.728 0.228-0.419 0-0.82-0.040-1.221-0.115 0.841 2.604 3.26 4.503 6.139 4.556-2.24 1.759-5.079 2.807-8.136 2.807-0.52 0-1.039-0.031-1.56-0.089 2.919 1.859 6.357 2.945 10.076 2.945 12.072 0 18.665-9.995 18.665-18.648 0-0.279 0-0.56-0.020-0.84 1.281-0.919 2.4-2.080 3.28-3.397z"></path>
</symbol>
<symbol id="icon-uber" viewBox="0 0 32 32">
<path d="M0 10.627v6.613c0 2.493 1.733 4.133 4 4.133 1.107 0 2.080-0.427 2.787-1.16v0.987h1.573v-10.573h-1.587v6.52c0 1.68-1.133 2.813-2.587 2.813-1.48 0-2.6-1.107-2.6-2.813v-6.52h-1.587zM9.92 10.627v10.573h1.507v-0.973c0.697 0.708 1.666 1.147 2.737 1.147 0.003 0 0.007 0 0.010 0h-0.001c0.012 0 0.026 0 0.040 0 2.209 0 4-1.791 4-4 0-0.014-0-0.028-0-0.042l0 0.002c0-0 0-0 0-0 0-2.209-1.791-4-4-4-0.014 0-0.028 0-0.042 0l0.002-0c-0.002 0-0.005 0-0.007 0-1.068 0-2.033 0.439-2.725 1.146l-0.001 0.001v-3.853h-1.52zM23.080 13.333c-2.253 0-3.96 1.84-3.96 4 0 2.307 1.787 4 4.093 4 1.413 0 2.56-0.587 3.32-1.613l-1.093-0.827c-0.573 0.773-1.333 1.107-2.227 1.107-1.293 0-2.333-0.907-2.547-2.16h6.267v-0.507c0-2.28-1.64-4-3.853-4zM31.467 13.44c-0.84 0-1.467 0.387-1.84 1v-0.947h-1.507v7.707h1.52v-4.387c0-1.187 0.733-1.96 1.733-1.96h0.627v-1.427h-0.533zM23.053 14.667c1.133 0 2.080 0.787 2.333 1.96h-4.72c0.307-1.173 1.253-1.96 2.387-1.96zM14.067 14.667c1.453 0 2.64 1.2 2.64 2.667 0 1.507-1.187 2.667-2.64 2.667-1.467-0.008-2.653-1.199-2.653-2.667 0 0 0-0 0-0v0c0 0 0-0 0-0 0-1.468 1.186-2.659 2.653-2.667h0.001z"></path>
</symbol>
<symbol id="icon-ubereats" viewBox="0 0 32 32">
<path fill="#5fb709" style="fill: var(--color7, #5fb709)" d="M0 3.667v6.787c0 2.56 1.787 4.253 4.107 4.253 1.133 0 2.147-0.44 2.867-1.2v1.013h1.613v-10.853h-1.627v6.693c0 1.72-1.16 2.88-2.667 2.88-1.52 0-2.667-1.133-2.667-2.88v-6.693h-1.627zM9.8 3.667v10.853h1.533v-1c0.717 0.733 1.716 1.187 2.821 1.187 0.007 0 0.013-0 0.020-0h-0.001c0.008 0 0.017 0 0.027 0 2.275 0 4.12-1.845 4.12-4.12 0-0.005 0-0.009-0-0.014v0.001c0-0.004 0-0.009 0-0.013 0-2.275-1.845-4.12-4.12-4.12-0.009 0-0.019 0-0.028 0h0.001c-1.107 0-2.093 0.453-2.84 1.173v-3.947h-1.533zM23.013 6.453c-2.347 0-4.067 1.88-4.067 4.107 0 2.36 1.827 4.107 4.2 4.107 1.44 0 2.627-0.613 3.413-1.667l-1.133-0.84c-0.587 0.787-1.36 1.173-2.28 1.173-1.333 0-2.4-0.973-2.613-2.253h6.427v-0.52c0-2.347-1.667-4.107-3.947-4.107zM31.267 6.547c-0.867 0-1.493 0.4-1.88 1.040v-0.973h-1.56v7.907h1.573v-4.52c0-1.2 0.747-2 1.76-2h0.653v-1.453h-0.547zM22.973 7.813c1.173 0 2.147 0.813 2.413 2.027h-4.827c0.28-1.213 1.253-2.027 2.413-2.027zM14.067 7.84c1.48 0 2.707 1.2 2.707 2.733 0 1.52-1.227 2.76-2.707 2.76-0.004 0-0.009 0-0.014 0-1.502 0-2.72-1.218-2.72-2.72 0-0.014 0-0.028 0-0.042l-0 0.002c0-1.533 1.227-2.733 2.733-2.733zM0 17.28v10.853h7.627v-1.853h-5.56v-2.693h5.413v-1.8h-5.413v-2.653h5.56v-1.853h-7.627zM19.413 17.84v2.28h-1.547v1.813h1.547v4.267c0 1.080 0.76 1.933 2.133 1.933h2.187v-1.813h-1.52c-0.467 0-0.76-0.213-0.76-0.64v-3.747h2.28v-1.813h-2.28v-2.28h-2.040zM12.427 19.92c-2.387 0-4.267 1.867-4.267 4.213 0 2.333 1.88 4.2 4.267 4.2 0.96 0 1.853-0.333 2.56-0.92v0.72h2.027v-8.013h-2.027v0.72c-0.68-0.572-1.566-0.92-2.533-0.92-0.009 0-0.019 0-0.028 0h0.001zM28.053 19.92c-2.12 0-3.6 0.867-3.6 2.56 0 1.16 0.813 1.92 2.573 2.293l1.933 0.453c0.76 0.147 0.96 0.347 0.96 0.667 0 0.493-0.587 0.813-1.507 0.813-1.16 0-1.827-0.267-2.093-1.147h-2.040c0.293 1.667 1.533 2.773 4.067 2.773 2.32 0 3.653-1.107 3.653-2.653 0-1.093-0.773-1.907-2.413-2.253l-1.72-0.36c-1-0.187-1.32-0.4-1.32-0.747 0-0.48 0.48-0.773 1.373-0.773 0.96 0 1.667 0.267 1.867 1.12h2.027c-0.107-1.64-1.32-2.747-3.76-2.747zM12.6 21.68c1.347 0 2.427 1.080 2.427 2.453s-1.080 2.44-2.427 2.44c-0.004 0-0.009 0-0.013 0-1.34 0-2.427-1.086-2.427-2.427 0-0.005 0-0.009 0-0.014v0.001c0-1.373 1.107-2.453 2.44-2.453z"></path>
</symbol>
<symbol id="icon-visa" viewBox="0 0 32 32">
<path fill="#142787" style="fill: var(--color8, #142787)" d="M23.26 11.497c-0.516-0.195-1.32-0.401-2.32-0.401-2.56 0-4.367 1.291-4.38 3.14-0.016 1.36 1.285 2.125 2.268 2.581 1.009 0.467 1.347 0.76 1.344 1.18-0.007 0.636-0.807 0.924-1.549 0.924-1.021 0-1.581-0.143-2.441-0.5l-0.319-0.148-0.361 2.131c0.621 0.26 1.741 0.483 2.9 0.5 2.721 0 4.5-1.281 4.521-3.252 0.021-1.084-0.68-1.907-2.161-2.584-0.899-0.44-1.459-0.735-1.459-1.181 0-0.395 0.479-0.816 1.479-0.816 0.86-0.013 1.461 0.172 1.94 0.364l0.24 0.108 0.361-2.059zM29.904 11.271h-2c-0.623 0-1.088 0.169-1.361 0.788l-3.847 8.712h2.721l0.544-1.427 3.32 0.003c0.081 0.333 0.32 1.424 0.32 1.424h2.399zM12.88 11.191h2.591l-1.62 9.505h-2.592l1.621-9.508zM6.295 16.429l0.269 1.32 2.535-6.479h2.745l-4.081 9.487h-2.739l-2.24-8.035c-0.047-0.137-0.104-0.231-0.24-0.316-0.757-0.396-1.604-0.719-2.544-0.943l0.033-0.2h4.175c0.565 0.021 1.021 0.2 1.177 0.805l0.909 4.364zM26.705 17.399l1.033-2.659c-0.013 0.027 0.213-0.549 0.344-0.907l0.177 0.82 0.599 2.743h-2.153z"></path>
</symbol>
<symbol id="icon-youtube" viewBox="0 0 32 32">
<path fill="#f00" style="fill: var(--color9, #f00)" d="M31.327 8.273c-0.386-1.353-1.431-2.398-2.756-2.777l-0.028-0.007c-2.493-0.668-12.528-0.668-12.528-0.668s-10.009-0.013-12.528 0.668c-1.353 0.386-2.398 1.431-2.777 2.756l-0.007 0.028c-0.443 2.281-0.696 4.903-0.696 7.585 0 0.054 0 0.109 0 0.163l-0-0.008c-0 0.037-0 0.082-0 0.126 0 2.682 0.253 5.304 0.737 7.845l-0.041-0.26c0.386 1.353 1.431 2.398 2.756 2.777l0.028 0.007c2.491 0.669 12.528 0.669 12.528 0.669s10.008 0 12.528-0.669c1.353-0.386 2.398-1.431 2.777-2.756l0.007-0.028c0.425-2.233 0.668-4.803 0.668-7.429 0-0.099-0-0.198-0.001-0.297l0 0.015c0.001-0.092 0.001-0.201 0.001-0.31 0-2.626-0.243-5.196-0.708-7.687l0.040 0.258zM12.812 20.801v-9.591l8.352 4.803z"></path>
</symbol>
</defs>
</svg>
